<svg width="1676" height="1310" viewBox="0 0 1676 1310" fill="none" xmlns="http://www.w3.org/2000/svg">
<g opacity="0.05">
<circle cx="874.239" cy="140.503" r="32.2992" transform="rotate(45 874.239 140.503)" fill="#00FFF0"/>
<circle cx="708.295" cy="464.874" r="13.4921" transform="rotate(45 708.295 464.874)" fill="#00FFF0"/>
<circle cx="1557.09" cy="849.956" r="13.4921" transform="rotate(45 1557.09 849.956)" fill="#00FFF0"/>
<circle cx="1082.97" cy="1077.77" r="13.4921" transform="rotate(45 1082.97 1077.77)" fill="#DEC4F7"/>
<circle cx="1187.62" cy="309.338" r="32.2992" transform="rotate(45 1187.62 309.338)" fill="#FF9800"/>
<circle cx="742.987" cy="338.826" r="32.2992" transform="rotate(45 742.987 338.826)" fill="#FF007A"/>
<circle cx="554.494" cy="673.026" r="51.924" transform="rotate(45 554.494 673.026)" fill="#DEC4F7"/>
<circle cx="960.391" cy="1037.29" r="22.4867" transform="rotate(45 960.391 1037.29)" fill="#FF007A"/>
<circle cx="515.176" cy="454.466" r="32.2992" transform="rotate(45 515.176 454.466)" fill="#FF9900"/>
<circle cx="1284.18" cy="1058.11" r="32.2992" transform="rotate(45 1284.18 1058.11)" fill="#FF4D15"/>
<circle cx="1380.16" cy="848.799" r="47.8355" transform="rotate(45 1380.16 848.799)" fill="#DEC4F7"/>
</g>
<g opacity="0.05">
<circle cx="68.3475" cy="159.225" r="34.3915" fill="#00FFF0"/>
<circle cx="187.629" cy="528.389" r="14.366" fill="#00FFF0"/>
<circle cx="1116.63" cy="179.251" r="14.366" fill="#00FFF0"/>
<circle cx="931.181" cy="707.747" r="14.366" fill="#DEC4F7"/>
<circle cx="431.417" cy="50.3915" r="34.3915" fill="#FF9800"/>
<circle cx="118.846" cy="407.366" r="34.3915" fill="#FF007A"/>
<circle cx="228.551" cy="800.909" r="55.2875" fill="#DEC4F7"/>
<circle cx="808.417" cy="769.565" r="23.9434" fill="#FF007A"/>
<circle cx="34.3915" cy="665.955" r="34.3915" fill="#FF9900"/>
<circle cx="1067.88" cy="541.449" r="34.3915" fill="#FF4D15"/>
<circle cx="982.551" cy="311.592" r="50.9342" fill="#DEC4F7"/>
</g>
</svg>
