<svg width="86" height="86" viewBox="0 0 86 86" fill="none" xmlns="http://www.w3.org/2000/svg">
<path d="M47.8939 73.6943C47.6466 73.6943 47.4534 73.5861 47.3143 73.3697C47.1906 73.1379 47.1829 72.8983 47.2911 72.651C47.5693 72.0173 47.7393 71.4995 47.8011 71.0977C47.863 70.6958 47.863 70.348 47.8011 70.0543C47.7548 69.7607 47.6929 69.4825 47.6157 69.2197C47.5384 68.9415 47.4997 68.6324 47.4997 68.2923C47.4997 67.8905 47.6388 67.5581 47.9171 67.2954C48.1953 67.0326 48.5276 66.9012 48.914 66.9012C49.3931 66.9012 49.7641 67.1022 50.0269 67.504C50.2896 67.9059 50.421 68.4082 50.421 69.011C50.421 69.4129 50.336 69.8766 50.166 70.4021C49.9959 70.9276 49.7795 71.4454 49.5168 71.9555C49.2695 72.4501 48.999 72.8674 48.7053 73.2075C48.4117 73.532 48.1412 73.6943 47.8939 73.6943Z" fill="white"/>
<path d="M58.5698 85.333C58.2298 85.333 57.9438 85.2171 57.712 84.9852C57.4956 84.7534 57.3874 84.4674 57.3874 84.1274V68.4314C57.3874 68.0914 57.5033 67.8054 57.7352 67.5736C57.967 67.3418 58.2452 67.2258 58.5698 67.2258C58.9099 67.2258 59.1958 67.3418 59.4277 67.5736C59.6595 67.8054 59.7754 68.0914 59.7754 68.4314V82.9218H68.1682C68.5083 82.9218 68.7942 83.0377 69.0261 83.2696C69.2579 83.5014 69.3738 83.7874 69.3738 84.1274C69.3738 84.4674 69.2579 84.7534 69.0261 84.9852C68.7942 85.2171 68.5083 85.333 68.1682 85.333H58.5698Z" fill="white"/>
<path d="M78.1543 85.333C77.8297 85.333 77.5515 85.2171 77.3196 84.9852C77.0878 84.7534 76.9719 84.4674 76.9719 84.1274V78.7254L70.7816 69.1038C70.5806 68.7792 70.5034 68.4778 70.5497 68.1996C70.5961 67.9059 70.7275 67.6741 70.9439 67.504C71.1757 67.3186 71.4385 67.2258 71.7321 67.2258C71.9949 67.2258 72.2036 67.2877 72.3581 67.4113C72.5127 67.5195 72.6595 67.6818 72.7986 67.8982L78.2238 76.4997L83.7418 67.8054C83.9891 67.419 84.3446 67.2258 84.8083 67.2258C85.0865 67.2258 85.3183 67.3263 85.5038 67.5272C85.6893 67.7127 85.7975 67.9523 85.8284 68.246C85.8593 68.5242 85.782 68.8101 85.5965 69.1038L79.3599 78.7254V84.1274C79.3599 84.4674 79.244 84.7534 79.0121 84.9852C78.7803 85.2171 78.4943 85.333 78.1543 85.333Z" fill="white"/>
<path d="M17.4358 85.5615C16.0757 85.5615 14.8314 85.3373 13.7031 84.8891C12.5748 84.4254 11.6011 83.784 10.7819 82.9648C9.97814 82.1301 9.35216 81.1487 8.90392 80.0203C8.45569 78.8766 8.23157 77.6246 8.23157 76.2644C8.23157 74.9043 8.45569 73.66 8.90392 72.5317C9.35216 71.4034 9.97814 70.4296 10.7819 69.6105C11.6011 68.7758 12.5748 68.1344 13.7031 67.6861C14.8314 67.2224 16.0757 66.9906 17.4358 66.9906C18.796 66.9906 20.0325 67.2224 21.1454 67.6861C22.2737 68.1344 23.2475 68.7758 24.0666 69.6105C24.8858 70.4296 25.5195 71.4034 25.9678 72.5317C26.416 73.66 26.6401 74.9043 26.6401 76.2644C26.6401 77.6246 26.416 78.8766 25.9678 80.0203C25.5195 81.1487 24.8858 82.1301 24.0666 82.9648C23.2475 83.784 22.2737 84.4254 21.1454 84.8891C20.0325 85.3373 18.796 85.5615 17.4358 85.5615ZM17.4358 83.3821C18.7806 83.3821 19.9707 83.073 21.0063 82.4547C22.0419 81.821 22.8533 80.9709 23.4407 79.9044C24.028 78.8225 24.3217 77.6091 24.3217 76.2644C24.3217 74.9197 24.028 73.7141 23.4407 72.6476C22.8533 71.5657 22.0419 70.7156 21.0063 70.0973C19.9707 69.4791 18.7806 69.17 17.4358 69.17C16.0911 69.17 14.901 69.4791 13.8654 70.0973C12.8298 70.7156 12.0184 71.5657 11.431 72.6476C10.8437 73.7141 10.55 74.9197 10.55 76.2644C10.55 77.6091 10.8437 78.8225 11.431 79.9044C12.0184 80.9709 12.8298 81.821 13.8654 82.4547C14.901 83.073 16.0911 83.3821 17.4358 83.3821Z" fill="#FFCB13"/>
<path d="M35.9348 85.4223C34.6828 85.4223 33.5777 85.1519 32.6194 84.6109C31.6611 84.0545 30.9037 83.2971 30.3473 82.3388C29.8063 81.365 29.5358 80.2522 29.5358 79.0002C29.5358 77.7328 29.8063 76.6199 30.3473 75.6616C30.9037 74.6879 31.6611 73.9305 32.6194 73.3895C33.5777 72.8331 34.6828 72.5549 35.9348 72.5549C37.1713 72.5549 38.2687 72.8331 39.227 73.3895C40.1853 73.9305 40.9349 74.6879 41.4759 75.6616C42.0323 76.6199 42.3106 77.7328 42.3106 79.0002C42.3106 80.2522 42.0401 81.365 41.4991 82.3388C40.9581 83.2971 40.2085 84.0545 39.2502 84.6109C38.2919 85.1519 37.1868 85.4223 35.9348 85.4223ZM35.9348 83.3357C36.7385 83.3357 37.4495 83.1503 38.0678 82.7793C38.686 82.4083 39.1652 81.8983 39.5052 81.2491C39.8607 80.5999 40.0385 79.8503 40.0385 79.0002C40.0385 78.1501 39.8607 77.4005 39.5052 76.7513C39.1652 76.0867 38.686 75.5689 38.0678 75.1979C37.4495 74.827 36.7385 74.6415 35.9348 74.6415C35.1311 74.6415 34.4201 74.827 33.8018 75.1979C33.1836 75.5689 32.6967 76.0867 32.3412 76.7513C31.9857 77.4005 31.8079 78.1501 31.8079 79.0002C31.8079 79.8503 31.9857 80.5999 32.3412 81.2491C32.6967 81.8983 33.1836 82.4083 33.8018 82.7793C34.4201 83.1503 35.1311 83.3357 35.9348 83.3357Z" fill="#FFCB13"/>
<path d="M49.0855 29.838C49.0855 25.5182 47.4178 21.455 44.3605 18.397C43.6829 17.7192 42.9569 17.1086 42.1901 16.569C42.5371 18.1156 42.7119 19.7146 42.7049 21.3452C42.7049 27.047 40.4881 32.432 36.4685 36.4525C32.817 40.1048 28.1129 42.2671 23.0196 42.6345C25.8429 44.8265 29.2919 46.0051 32.9222 46.0051C37.2409 46.0051 41.3031 44.3371 44.3605 41.279C47.4178 38.221 49.0855 34.1578 49.0855 29.838Z" fill="#FFCB13"/>
<path fill-rule="evenodd" clip-rule="evenodd" d="M15.3558 41.8757C16.1009 42.9561 16.9434 43.9657 17.8706 44.8931C21.719 48.7424 27.064 51.1375 32.9435 51.1589C44.7026 51.1589 54.2595 41.5998 54.2595 29.838C54.2381 23.9571 51.8649 18.6322 47.9951 14.7615C45.5517 12.3176 42.505 10.4598 39.1013 9.42357C40.5725 11.5994 41.6165 14.0126 42.1901 16.569C42.9569 17.1086 43.6829 17.7192 44.3605 18.397C47.4178 21.455 49.0855 25.5182 49.0855 29.838C49.0855 34.1578 47.4178 38.221 44.3605 41.279C41.3031 44.3371 37.2409 46.0051 32.9222 46.0051C29.2919 46.0051 25.8429 44.8265 23.0196 42.6345C22.4722 42.6739 21.9203 42.6927 21.3647 42.6903C19.3043 42.7079 17.2852 42.4295 15.3558 41.8757Z" fill="#FFCB13"/>
<path fill-rule="evenodd" clip-rule="evenodd" d="M49.3256 33.832C49.3256 37.044 50.5813 40.0818 52.8943 42.3948C55.2073 44.7078 58.2451 45.9635 61.4572 45.9635C64.6692 45.9635 67.707 44.7078 70.02 42.3948C72.333 40.0818 73.5888 37.044 73.5888 33.832C73.5888 30.6199 72.333 27.5821 70.02 25.2691C67.7103 22.9593 64.6777 21.7039 61.4706 21.7004C54.7658 21.742 49.3256 27.2251 49.3256 33.832ZM61.4572 16.4557C51.8855 16.5047 44.0809 24.3093 44.0809 33.832C44.0809 38.446 45.897 42.8146 49.1858 46.1034C52.4745 49.3921 56.8431 51.2082 61.4572 51.2082C66.0712 51.2082 70.4399 49.3921 73.7286 46.1034C77.0173 42.8146 78.8335 38.446 78.8335 33.832C78.8335 29.2179 77.0173 24.8493 73.7286 21.5605C70.4399 18.2718 66.0712 16.4557 61.4572 16.4557Z" fill="#FFCB13"/>
<ellipse rx="2.2441" ry="4.12881" transform="matrix(0.872894 0.487909 -0.40819 0.912897 26.2347 24.1751)" fill="#FFCB13"/>
<ellipse rx="1.83481" ry="3.37578" transform="matrix(0.872894 0.487909 -0.40819 0.912897 20.7754 20.6189)" fill="#FFCB13"/>
</svg>
