<svg width="98" height="99" viewBox="0 0 98 99" fill="none" xmlns="http://www.w3.org/2000/svg">
<path d="M76.2278 73.1583C83.5107 61.5254 89.7652 49.1231 89.6814 45.7863C89.6844 44.951 89.5077 44.1248 89.1634 43.3637C89.4016 42.2071 89.2063 41.0034 88.6149 39.9813C88.3378 39.5686 87.9714 39.2235 87.5428 38.9716C87.1142 38.7197 86.6344 38.5675 86.139 38.5262C83.366 38.1986 77.9114 39.3718 74.2318 43.958C72.7082 45.8701 71.2379 47.988 69.9047 49.9991C69.8244 49.936 69.7404 49.8775 69.6533 49.8239C68.5944 49.1916 67.2003 49.2754 65.4938 50.0372C63.376 51.0124 60.4278 54.9052 56.4968 60.2913C55.3362 61.9775 54.0823 63.5976 52.7411 65.144C51.5755 65.5173 50.4556 65.9058 49.2215 66.3477C47.3474 67.0105 45.2296 67.757 42.3652 68.6331C41.2712 68.7337 40.1692 68.7056 39.0817 68.5493C31.2964 67.7545 23.431 68.4526 15.9073 70.6062C4.16017 73.7982 0.480607 78.0872 0.328245 78.2701C0.0869194 78.5821 -0.0240202 78.9755 0.0187581 79.3675C0.0615364 79.7596 0.254699 80.1199 0.557621 80.3725C0.860542 80.6251 1.24962 80.7504 1.64302 80.722C2.03641 80.6936 2.40348 80.5138 2.66701 80.2203C2.66701 80.2203 6.07232 76.4417 16.7377 73.5697C23.9117 71.5249 31.4096 70.8656 38.8303 71.6271C40.872 71.8023 42.2204 71.9165 43.2717 71.589C46.2199 70.6748 48.3759 69.913 50.2728 69.2426C53.3439 68.0852 56.4962 67.1558 59.7041 66.462C65.4253 65.2354 69.7829 65.7458 71.9769 67.8942C72.5276 68.4384 72.938 69.1081 73.1729 69.8459C73.4078 70.5837 73.4601 71.3674 73.3253 72.1299L72.5635 73.2878C70.6285 74.72 65.151 75.5732 61.959 76.0684C59.7481 76.323 57.5669 76.7899 55.4455 77.4626C49.3964 79.99 43.6453 83.1785 38.2971 86.97C37.9708 87.2084 37.7525 87.5667 37.6904 87.966C37.6282 88.3653 37.7273 88.773 37.9657 89.0993C38.2041 89.4256 38.5624 89.6438 38.9617 89.7059C39.361 89.7681 39.7686 89.6691 40.095 89.4307C45.2441 85.7973 50.7715 82.7321 56.5806 80.2889C58.498 79.7245 60.4607 79.3268 62.4466 79.1005C64.9453 78.7119 67.4746 78.3386 69.6762 77.7368C64.6254 85.2178 59.6279 91.4495 56.5958 92.8207C50.608 95.5861 20.1583 95.1062 8.92913 94.6415C8.52504 94.6263 8.13148 94.7723 7.83503 95.0473C7.53857 95.3223 7.36352 95.7039 7.34836 96.108C7.33321 96.512 7.4792 96.9056 7.75422 97.2021C8.02924 97.4985 8.41076 97.6736 8.81486 97.6887C9.57667 97.6887 18.1471 98.0392 28.0126 98.0392C39.8588 98.0392 53.5791 97.5745 57.8757 95.5937C61.8981 93.7349 68.5868 85.0731 74.788 75.4285C75.4976 74.8445 76.002 74.0491 76.2278 73.1583ZM58.9575 62.112C61.2962 58.9124 65.212 53.5492 66.7737 52.8255C67.1791 52.5775 67.6469 52.4506 68.1221 52.4598C68.0652 52.4376 68.0171 52.3975 67.985 52.3455C67.9813 52.3203 67.9813 52.2946 67.985 52.2694H68.4344C67.5279 53.6406 66.667 54.9281 65.9128 55.9337C64.793 57.4573 60.8544 62.0282 59.6888 63.3918L59.087 63.5061L57.7309 63.7499L58.9575 62.112ZM64.1683 62.79C65.7376 60.9388 67.5888 58.7372 68.3354 57.7316C69.2572 56.4974 70.2857 54.9357 71.3827 53.2902C72.9596 50.9057 74.7499 48.2013 76.6087 45.8777C79.4884 42.282 83.7545 41.3068 85.7505 41.5659H85.8571C84.0212 41.7716 81.751 43.2495 79.077 45.992C77.1148 48.0108 75.4105 50.2652 74.0033 52.7036C72.6244 54.8976 70.7504 57.8915 67.0632 62.8205C66.1 62.7441 65.1328 62.734 64.1683 62.79ZM74.0719 65.7154C73.0153 64.7096 71.7441 63.9568 70.3542 63.5137C73.5615 59.1638 75.2908 56.406 76.5859 54.372C77.8786 52.1165 79.4474 50.0308 81.2558 48.1632C84.4478 44.8874 86.0857 44.5446 86.3295 44.6284C86.52 45.0131 86.6042 45.4419 86.5732 45.8701C86.6342 48.3612 81.751 58.1277 75.725 68.1456C75.3463 67.2401 74.7981 66.4152 74.11 65.7154H74.0719Z" fill="white"/>
<path d="M96.9414 18.1401C96.7874 18.0118 96.6096 17.9151 96.4183 17.8556C96.2269 17.7961 96.0257 17.775 95.8261 17.7934C95.6265 17.8118 95.4326 17.8694 95.2553 17.9629C95.078 18.0563 94.921 18.1839 94.793 18.3381C94.793 18.3381 91.4182 22.1472 80.7604 24.9812C73.5867 27.0276 66.0885 27.6869 58.6678 26.9238C56.6261 26.7486 55.2777 26.6343 54.2264 26.9619C51.2782 27.8761 49.1223 28.6379 47.2254 29.3083C44.1443 30.4671 40.9818 31.3965 37.7636 32.0889C32.0424 33.3154 27.6848 32.805 25.4908 30.6567C24.9401 30.1125 24.5297 29.4427 24.2948 28.705C24.0599 27.9672 24.0076 27.1834 24.1424 26.421L24.9042 25.263C26.8392 23.8308 32.3167 22.9776 35.5087 22.4824C37.7195 22.2278 39.9008 21.761 42.0222 21.0883C48.0713 18.5609 53.8224 15.3724 59.1706 11.5809C59.4969 11.3424 59.7151 10.9842 59.7773 10.5849C59.8394 10.1855 59.7404 9.77789 59.502 9.45159C59.3839 9.29002 59.2352 9.15328 59.0643 9.04919C58.8934 8.94509 58.7037 8.87568 58.506 8.8449C58.1067 8.78276 57.699 8.88178 57.3727 9.1202C52.2236 12.7536 46.6962 15.8187 40.8871 18.262C38.9699 18.829 37.0072 19.2291 35.0211 19.458C32.5223 19.8465 29.9931 20.2198 27.7915 20.8217C32.8423 13.3406 37.8398 7.10901 40.8718 5.73774C46.8597 2.97235 77.3094 3.4523 88.5385 3.917C88.7387 3.92517 88.9384 3.8938 89.1264 3.82468C89.3144 3.75557 89.4869 3.65006 89.6341 3.51421C89.7813 3.37836 89.9002 3.21482 89.9841 3.03295C90.068 2.85108 90.1153 2.65446 90.1231 2.45432C90.1313 2.25358 90.0996 2.05321 90.0301 1.86474C89.9605 1.67626 89.8543 1.50342 89.7176 1.35614C89.581 1.20887 89.4165 1.09007 89.2338 1.0066C89.0511 0.923123 88.8536 0.876613 88.6528 0.869747C86.9768 0.808802 47.4615 -0.653882 39.592 2.97235C35.562 4.83118 28.8809 13.4702 22.6721 23.13C21.9626 23.719 21.4606 24.52 21.2399 25.4154C13.9569 37.0255 7.70243 49.4278 7.78623 52.7569C7.7833 53.5922 7.95997 54.4184 8.30427 55.1795C8.06612 56.3361 8.26133 57.5399 8.85277 58.5619C9.1299 58.9747 9.49633 59.3197 9.92492 59.5716C10.3535 59.8235 10.8333 59.9757 11.3287 60.017C11.6397 60.0532 11.9526 60.071 12.2657 60.0703C14.3798 60.0039 16.4546 59.4814 18.348 58.5387C20.2414 57.5959 21.9087 56.2551 23.2358 54.6081C24.7595 52.696 26.2298 50.5781 27.5629 48.5669C27.6433 48.6301 27.7272 48.6886 27.8143 48.7422C28.3002 49.0307 28.8568 49.1784 29.4218 49.1688C30.3097 49.1364 31.1801 48.913 31.9738 48.5136C34.0917 47.5385 37.0399 43.6456 40.9709 38.2596C42.1315 36.5733 43.3853 34.9532 44.7266 33.4068C45.8922 33.0335 47.0121 32.645 48.2462 32.2032C50.1203 31.5404 52.2381 30.7938 55.1025 29.9177C56.1965 29.8163 57.2986 29.8445 58.3859 30.0015C66.1712 30.7973 74.0369 30.0992 81.5603 27.9446C93.3075 24.7831 96.9871 20.4865 97.1394 20.3265C97.2737 20.1716 97.3753 19.9912 97.4382 19.7961C97.5011 19.601 97.5239 19.3953 97.5055 19.1912C97.487 18.987 97.4275 18.7887 97.3305 18.6081C97.2336 18.4275 97.1012 18.2683 96.9414 18.1401ZM21.6817 30.4053C22.0786 31.3157 22.6477 32.1409 23.3577 32.8355C24.4137 33.8421 25.6851 34.5951 27.0754 35.0371C23.8758 39.3871 22.1464 42.1448 20.8513 44.1789C19.5586 46.4344 17.9898 48.52 16.1814 50.3877C12.9894 53.6635 11.3515 54.0063 11.1077 53.9225C10.9172 53.5377 10.833 53.109 10.864 52.6807C10.7725 50.1896 15.6558 40.4231 21.6817 30.4053ZM20.859 52.6807C17.9793 56.2765 13.7131 57.2516 11.7172 56.9926H11.5725C13.416 56.8098 15.6939 55.3471 18.4288 52.5741C20.391 50.5553 22.0952 48.3009 23.5025 45.8625C24.8813 43.6685 26.7554 40.6745 30.4426 35.7456C31.014 35.7989 31.6158 35.8294 32.2557 35.8294C32.6138 35.8294 33.0175 35.8294 33.368 35.8294C31.7986 37.673 29.9474 39.8823 29.2008 40.8879C28.279 42.122 27.2506 43.6837 26.1536 45.3292C24.5081 47.6528 22.7254 50.3572 20.859 52.6807ZM38.5102 36.4389C36.1714 39.6385 32.2557 45.0016 30.694 45.7254C30.2884 45.973 29.8207 46.0998 29.3456 46.091C29.4025 46.1133 29.4506 46.1534 29.4827 46.2053C29.4864 46.2306 29.4864 46.2562 29.4827 46.2815H29.0332C29.9398 44.9102 30.8006 43.6228 31.5548 42.6172C32.6747 41.0935 36.6133 36.5227 37.7865 35.159L38.3883 35.0447L39.7367 34.801L38.5102 36.4389Z" fill="white"/>
</svg>
