<svg width="69" height="75" viewBox="0 0 69 75" fill="none" xmlns="http://www.w3.org/2000/svg">
<path d="M29.8746 30.5587C30.035 30.5593 30.194 30.5288 30.3429 30.4691C32.4445 29.6365 34.2465 28.19 35.5138 26.3181C36.7812 24.4463 37.455 22.236 37.4476 19.9755V19.0919C37.4386 17.2022 38.0438 15.3607 39.1719 13.8447C40.3001 12.3286 41.8902 11.2201 43.7029 10.6859L49.1693 9.04513C49.3281 8.99756 49.4759 8.91918 49.6044 8.81446C49.7329 8.70975 49.8395 8.58075 49.9182 8.43483C49.9968 8.28892 50.046 8.12894 50.0628 7.96403C50.0796 7.79913 50.0638 7.63252 50.0162 7.47374C49.9686 7.31495 49.8902 7.16709 49.7855 7.03859C49.6808 6.91009 49.5518 6.80348 49.4059 6.72484C49.26 6.64619 49.1 6.59706 48.9351 6.58024C48.7702 6.56343 48.6036 6.57925 48.4448 6.62682L42.9784 8.26764C40.6439 8.95621 38.5962 10.3844 37.1435 12.3372C35.6908 14.29 34.9116 16.6618 34.9233 19.0957V19.9792C34.929 21.7346 34.4057 23.4509 33.4216 24.9044C32.4375 26.3579 31.0382 27.4812 29.4063 28.1278C29.136 28.238 28.9122 28.4384 28.7731 28.6951C28.634 28.9517 28.5882 29.2486 28.6434 29.5353C28.6986 29.8219 28.8515 30.0806 29.076 30.2672C29.3005 30.4538 29.5827 30.5568 29.8746 30.5587Z" fill="white"/>
<path d="M23.3685 19.3255L24.8743 24.5975C24.9502 24.8608 25.1097 25.0922 25.3288 25.2569C25.5478 25.4215 25.8145 25.5104 26.0885 25.5101C26.2058 25.5097 26.3226 25.4936 26.4356 25.4621C26.5951 25.4167 26.744 25.3404 26.874 25.2374C27.004 25.1344 27.1123 25.0069 27.193 24.862C27.2736 24.7171 27.3249 24.5578 27.344 24.3931C27.363 24.2284 27.3494 24.0615 27.304 23.9021L25.7982 18.6287C25.2275 16.6415 25.4249 14.5123 26.351 12.6638C27.0957 11.1647 27.4832 9.51361 27.4832 7.83978C27.4832 6.16596 27.0957 4.51485 26.351 3.0158L25.9623 2.22694C25.8882 2.0786 25.7856 1.9463 25.6604 1.8376C25.5352 1.7289 25.3898 1.64592 25.2325 1.59342C25.0752 1.54091 24.9091 1.5199 24.7437 1.53158C24.5783 1.54326 24.4168 1.58741 24.2685 1.6615C23.9689 1.81113 23.741 2.07364 23.6349 2.3913C23.5824 2.54858 23.5614 2.71467 23.5731 2.88008C23.5848 3.04549 23.6289 3.20697 23.703 3.35532L24.0981 4.14417C24.669 5.29246 24.9661 6.5574 24.9661 7.83978C24.9661 9.12216 24.669 10.3871 24.0981 11.5354C22.8868 13.9488 22.6264 16.7291 23.3685 19.3255Z" fill="white"/>
<path d="M64.0793 21.8498C64.2017 21.5382 64.1952 21.1907 64.0614 20.8838C63.9275 20.5769 63.6772 20.3358 63.3656 20.2134C63.0539 20.0911 62.7065 20.0975 62.3996 20.2314C62.0927 20.3652 61.8515 20.6155 61.7292 20.9272L59.6479 26.2409C58.9638 28.0016 57.728 29.4936 56.1254 30.4935C54.5228 31.4935 52.6395 31.9476 50.7572 31.7881L49.8737 31.7136C47.6214 31.5209 45.3634 32.0117 43.3944 33.122C41.4253 34.2323 39.8368 35.9104 38.8361 37.9373C38.6868 38.2369 38.6626 38.5836 38.7689 38.901C38.8752 39.2184 39.1032 39.4806 39.4028 39.6299C39.5771 39.7174 39.7695 39.7628 39.9645 39.7624C40.2002 39.7636 40.4316 39.6987 40.6324 39.5751C40.8331 39.4515 40.9953 39.2742 41.1004 39.0632C41.881 37.4916 43.1158 36.1907 44.6445 35.3292C46.1733 34.4677 47.9256 34.0853 49.6743 34.2316L50.5578 34.3061C52.9813 34.5132 55.4067 33.9294 57.4705 32.6421C59.5344 31.3549 61.1255 29.4336 62.0056 27.166L64.0793 21.8498Z" fill="white"/>
<path d="M64.5642 46.3243L65.3215 46.7825C65.4631 46.8743 65.6217 46.9367 65.7879 46.9661C65.9541 46.9955 66.1244 46.9912 66.289 46.9536C66.4535 46.916 66.6088 46.8458 66.7457 46.7471C66.8826 46.6485 66.9983 46.5233 67.086 46.3792C67.1738 46.235 67.2317 46.0747 67.2563 45.9077C67.281 45.7408 67.2719 45.5706 67.2297 45.4072C67.1874 45.2438 67.1128 45.0906 67.0103 44.9565C66.9078 44.8224 66.7795 44.7103 66.6329 44.6267L65.8756 44.1673C64.4433 43.3013 62.8296 42.7792 61.1615 42.6421C59.4933 42.505 57.8161 42.7566 56.2617 43.3772C54.3434 44.1484 52.2055 44.171 50.2714 43.4403L45.1395 41.5079C44.8285 41.3992 44.4873 41.4165 44.1888 41.5559C43.8903 41.6954 43.6582 41.9461 43.542 42.2544C43.4258 42.5627 43.4348 42.9042 43.567 43.206C43.6993 43.5077 43.9442 43.7458 44.2497 43.8694L49.3816 45.8018C51.9077 46.759 54.7016 46.7297 57.207 45.7198C58.397 45.2468 59.6802 45.0553 60.9564 45.1601C62.2326 45.265 63.4674 45.6634 64.5642 46.3243Z" fill="white"/>
<path d="M46.283 20.4614C46.283 21.4599 46.5791 22.436 47.1338 23.2662C47.6886 24.0965 48.4771 24.7436 49.3996 25.1257C50.3221 25.5078 51.3372 25.6078 52.3166 25.413C53.2959 25.2182 54.1955 24.7374 54.9015 24.0313C55.6076 23.3252 56.0884 22.4257 56.2833 21.4463C56.4781 20.467 56.3781 19.4519 55.996 18.5293C55.6138 17.6068 54.9667 16.8183 54.1365 16.2636C53.3062 15.7088 52.3301 15.4127 51.3316 15.4127C49.9926 15.4127 48.7085 15.9446 47.7617 16.8914C46.8149 17.8382 46.283 19.1224 46.283 20.4614ZM51.3316 17.937C51.8309 17.937 52.3189 18.0851 52.7341 18.3625C53.1492 18.6398 53.4727 19.0341 53.6638 19.4954C53.8548 19.9566 53.9048 20.4642 53.8074 20.9538C53.71 21.4435 53.4696 21.8933 53.1166 22.2463C52.7635 22.5994 52.3138 22.8398 51.8241 22.9372C51.3344 23.0346 50.8269 22.9846 50.3656 22.7935C49.9043 22.6025 49.5101 22.2789 49.2327 21.8638C48.9553 21.4487 48.8073 20.9606 48.8073 20.4614C48.8073 19.7919 49.0732 19.1498 49.5466 18.6764C50.02 18.203 50.6621 17.937 51.3316 17.937Z" fill="white"/>
<path d="M62.691 54.5397C61.6925 54.5397 60.7164 54.8358 59.8861 55.3905C59.0559 55.9453 58.4088 56.7338 58.0266 57.6563C57.6445 58.5788 57.5445 59.5939 57.7393 60.5733C57.9341 61.5526 58.415 62.4522 59.1211 63.1583C59.8271 63.8643 60.7267 64.3452 61.706 64.54C62.6854 64.7348 63.7005 64.6348 64.623 64.2527C65.5455 63.8705 66.334 63.2235 66.8888 62.3932C67.4435 61.563 67.7396 60.5869 67.7396 59.5883C67.7396 58.2493 67.2077 56.9652 66.2609 56.0184C65.3141 55.0716 64.03 54.5397 62.691 54.5397ZM62.691 62.1126C62.1917 62.1126 61.7037 61.9646 61.2885 61.6872C60.8734 61.4098 60.5499 61.0156 60.3588 60.5543C60.1678 60.0931 60.1178 59.5855 60.2152 59.0958C60.3126 58.6062 60.553 58.1564 60.906 57.8034C61.2591 57.4503 61.7088 57.2099 62.1985 57.1125C62.6882 57.0151 63.1957 57.0651 63.657 57.2562C64.1183 57.4472 64.5125 57.7708 64.7899 58.1859C65.0673 58.601 65.2153 59.0891 65.2153 59.5883C65.2153 60.2578 64.9494 60.8999 64.476 61.3733C64.0026 61.8467 63.3605 62.1126 62.691 62.1126Z" fill="white"/>
<path d="M14.7288 29.2965C15.7274 29.2965 16.7035 29.0004 17.5337 28.4457C18.364 27.8909 19.0111 27.1024 19.3932 26.1799C19.7753 25.2574 19.8753 24.2423 19.6805 23.2629C19.4857 22.2836 19.0048 21.384 18.2988 20.6779C17.5927 19.9719 16.6931 19.491 15.7138 19.2962C14.7344 19.1014 13.7193 19.2014 12.7968 19.5835C11.8743 19.9656 11.0858 20.6127 10.531 21.443C9.97627 22.2732 9.68018 23.2493 9.68018 24.2479C9.68018 25.5869 10.2121 26.871 11.1589 27.8178C12.1057 28.7646 13.3898 29.2965 14.7288 29.2965ZM14.7288 21.7235C15.2281 21.7235 15.7161 21.8716 16.1313 22.149C16.5464 22.4263 16.8699 22.8206 17.061 23.2819C17.2521 23.7431 17.302 24.2507 17.2046 24.7403C17.1072 25.23 16.8668 25.6798 16.5138 26.0328C16.1608 26.3859 15.711 26.6263 15.2213 26.7237C14.7316 26.8211 14.2241 26.7711 13.7628 26.58C13.3015 26.389 12.9073 26.0654 12.6299 25.6503C12.3526 25.2352 12.2045 24.7471 12.2045 24.2479C12.2045 23.5784 12.4705 22.9363 12.9439 22.4629C13.4173 21.9895 14.0593 21.7235 14.7288 21.7235Z" fill="white"/>
<path d="M59.6025 35.7399L57.0781 37.002C56.7785 37.1517 56.5507 37.4142 56.4446 37.7318C56.3386 38.0495 56.3631 38.3963 56.5127 38.6958C56.6623 38.9954 56.9248 39.2233 57.2425 39.3294C57.5601 39.4354 57.9069 39.4109 58.2065 39.2613L60.7308 37.9991C60.8792 37.925 61.0115 37.8225 61.1202 37.6972C61.2289 37.572 61.3119 37.4266 61.3644 37.2693C61.4169 37.112 61.4379 36.946 61.4262 36.7806C61.4145 36.6151 61.3704 36.4537 61.2963 36.3053C61.2222 36.157 61.1196 36.0247 60.9944 35.916C60.8692 35.8073 60.7238 35.7243 60.5665 35.6718C60.4092 35.6193 60.2431 35.5983 60.0777 35.6099C59.9123 35.6216 59.7508 35.6658 59.6025 35.7399Z" fill="white"/>
<path d="M33.6613 6.57754C33.9961 6.57754 34.3171 6.44456 34.5538 6.20786C34.7905 5.97116 34.9235 5.65012 34.9235 5.31537V1.52889C34.9235 1.19414 34.7905 0.873104 34.5538 0.636402C34.3171 0.399701 33.9961 0.266724 33.6613 0.266724C33.3266 0.266724 33.0055 0.399701 32.7688 0.636402C32.5321 0.873104 32.3992 1.19414 32.3992 1.52889V5.31537C32.3992 5.65012 32.5321 5.97116 32.7688 6.20786C33.0055 6.44456 33.3266 6.57754 33.6613 6.57754Z" fill="white"/>
<path d="M51.3316 58.3262H46.2829C45.9482 58.3262 45.6271 58.4591 45.3904 58.6958C45.1537 58.9326 45.0208 59.2536 45.0208 59.5883C45.0208 59.9231 45.1537 60.2441 45.3904 60.4808C45.6271 60.7175 45.9482 60.8505 46.2829 60.8505H51.3316C51.6663 60.8505 51.9873 60.7175 52.224 60.4808C52.4608 60.2441 52.5937 59.9231 52.5937 59.5883C52.5937 59.2536 52.4608 58.9326 52.224 58.6958C51.9873 58.4591 51.6663 58.3262 51.3316 58.3262Z" fill="white"/>
<path d="M39.5735 29.2308C39.8908 29.3363 40.2371 29.3116 40.5362 29.162C40.8354 29.0125 41.0629 28.7503 41.1689 28.4331L42.431 24.6466C42.4834 24.4892 42.5043 24.3229 42.4924 24.1574C42.4805 23.9919 42.4362 23.8303 42.3619 23.6819C42.2876 23.5336 42.1848 23.4013 42.0593 23.2926C41.9339 23.184 41.7883 23.1011 41.6308 23.0487C41.4734 22.9963 41.3071 22.9755 41.1416 22.9874C40.9761 22.9992 40.8145 23.0436 40.6662 23.1179C40.5178 23.1922 40.3855 23.295 40.2768 23.4204C40.1682 23.5459 40.0853 23.6915 40.0329 23.8489L38.7708 27.6354C38.7186 27.7929 38.698 27.9591 38.7102 28.1245C38.7223 28.2899 38.7669 28.4513 38.8415 28.5995C38.916 28.7477 39.019 28.8797 39.1447 28.988C39.2703 29.0963 39.416 29.1788 39.5735 29.2308Z" fill="white"/>
<path d="M68.9398 7.38156C68.8743 7.17985 68.759 6.99791 68.6046 6.85253C68.4502 6.70716 68.2616 6.60304 68.0563 6.54979L65.7377 5.94648L64.4579 3.92702C64.3363 3.75813 64.1763 3.62058 63.9911 3.5257C63.8059 3.43083 63.6007 3.38135 63.3926 3.38135C63.1845 3.38135 62.9794 3.43083 62.7942 3.5257C62.609 3.62058 62.449 3.75813 62.3274 3.92702L61.0374 5.94648L58.7201 6.54474C58.5156 6.59832 58.3278 6.70242 58.174 6.84747C58.0202 6.99252 57.9053 7.17388 57.8399 7.3749C57.7744 7.57593 57.7605 7.79017 57.7994 7.99797C57.8383 8.20578 57.9288 8.40048 58.0625 8.5642L59.5847 10.412L59.4383 12.8C59.4276 12.9722 59.4523 13.1448 59.5109 13.3071C59.5696 13.4694 59.6608 13.6179 59.7791 13.7435C59.8974 13.8692 60.0402 13.9692 60.1987 14.0375C60.3571 14.1057 60.5279 14.1408 60.7004 14.1404C60.8586 14.141 61.0153 14.1115 61.1624 14.0533L63.3901 13.1698L65.6166 14.0533C65.8141 14.1313 66.0281 14.1581 66.2388 14.1313C66.4494 14.1045 66.6499 14.0251 66.8217 13.9002C66.9935 13.7754 67.131 13.6092 67.2215 13.4171C67.312 13.225 67.3525 13.0132 67.3394 12.8013L67.193 10.412L68.7152 8.5642C68.8482 8.40138 68.9384 8.20792 68.9776 8.00139C69.0168 7.79486 69.0038 7.5818 68.9398 7.38156ZM64.9262 9.20033C64.7223 9.4479 64.6203 9.7638 64.6409 10.0838L64.6965 10.9926L63.8495 10.6581C63.5525 10.542 63.2227 10.542 62.9256 10.6581L62.08 10.9926L62.1355 10.0851C62.1558 9.76489 62.0533 9.44898 61.849 9.2016L61.2709 8.49983L62.1545 8.2739C62.4645 8.19383 62.7325 7.99892 62.9042 7.72865L63.3914 6.96252L63.8786 7.72865C64.051 7.99822 64.3187 8.19291 64.6283 8.2739L65.5118 8.49983L64.9262 9.20033Z" fill="white"/>
<path d="M42.6808 65.9673L42.5256 63.5781C42.5117 63.3664 42.4448 63.1616 42.3309 62.9826C42.2169 62.8037 42.0598 62.6563 41.8738 62.5541C41.6879 62.452 41.4792 62.3984 41.2671 62.3982C41.0549 62.398 40.8462 62.4513 40.6601 62.5532L38.5611 63.7043L36.2413 63.1136C36.0356 63.06 35.8197 63.0597 35.6139 63.1127C35.408 63.1657 35.2191 63.2702 35.0649 63.4165C34.9097 63.5616 34.7936 63.7435 34.7274 63.9454C34.6613 64.1473 34.6471 64.3626 34.6863 64.5714L35.1331 66.9228L33.8533 68.9423C33.7399 69.1217 33.6736 69.3268 33.6606 69.5387C33.6475 69.7505 33.6881 69.9622 33.7786 70.1543C33.8691 70.3463 34.0065 70.5123 34.1782 70.6372C34.3498 70.762 34.5502 70.8415 34.7607 70.8683L37.1361 71.1725L38.6646 73.0127C38.783 73.1553 38.9314 73.27 39.0991 73.3487C39.2669 73.4275 39.4499 73.4683 39.6352 73.4684C39.6884 73.4682 39.7415 73.4648 39.7943 73.4583C40.0049 73.4317 40.2054 73.3524 40.3773 73.2278C40.5491 73.1031 40.6868 72.9371 40.7775 72.7452L41.7986 70.5805L44.0225 69.697C44.2196 69.6184 44.3937 69.4914 44.5287 69.3277C44.6637 69.164 44.7553 68.9688 44.7949 68.7604C44.8345 68.5519 44.821 68.3368 44.7555 68.135C44.6899 67.9331 44.5746 67.7511 44.4201 67.6056L42.6808 65.9673ZM40.4051 68.4235C40.1084 68.5405 39.8674 68.7662 39.7311 69.0546L39.3424 69.8763L38.7631 69.1783C38.559 68.9319 38.2689 68.7722 37.9515 68.7315L37.0503 68.6166L37.535 67.848C37.7059 67.5775 37.7677 67.2522 37.7079 66.9379L37.5388 66.0456L38.4223 66.2703C38.7325 66.3486 39.061 66.3062 39.3411 66.1516L40.1388 65.7136L40.1969 66.6211C40.2172 66.9403 40.358 67.2398 40.5907 67.4592L41.2533 68.0815L40.4051 68.4235Z" fill="white"/>
<path d="M4.50539 46.5944C4.7011 46.6766 4.91438 46.7082 5.12551 46.6861C5.33665 46.6641 5.5388 46.5891 5.71328 46.4682L7.68099 45.0987L10.0513 45.4383C10.2616 45.4686 10.4761 45.4455 10.6749 45.3709C10.8738 45.2964 11.0507 45.1728 11.1891 45.0117C11.3276 44.8506 11.4231 44.6572 11.4669 44.4493C11.5107 44.2415 11.5014 44.026 11.4397 43.8227L10.7455 41.5306L11.8007 39.3849C11.8943 39.1945 11.9384 38.9834 11.9289 38.7714C11.9194 38.5594 11.8565 38.3532 11.7462 38.1719C11.6359 37.9906 11.4816 37.84 11.2976 37.7341C11.1137 37.6283 10.906 37.5705 10.6938 37.5661L8.29566 37.5169L6.58291 35.8496C6.43069 35.7015 6.24357 35.5943 6.03887 35.5377C5.83418 35.4812 5.61853 35.4772 5.41189 35.5262C5.20526 35.5751 5.01431 35.6754 4.85674 35.8178C4.69916 35.9602 4.58005 36.14 4.51044 36.3406L3.72537 38.6024L1.60242 39.7194C1.41489 39.8186 1.25541 39.9636 1.13872 40.1408C1.02203 40.3179 0.951884 40.5217 0.934775 40.7332C0.917666 40.9447 0.954142 41.157 1.04083 41.3507C1.12752 41.5443 1.26163 41.713 1.43076 41.8411L3.33789 43.2875L3.74809 45.6453C3.78434 45.8544 3.87274 46.051 4.0051 46.2169C4.13747 46.3828 4.30954 46.5126 4.50539 46.5944ZM5.34094 40.6029C5.62389 40.4535 5.83953 40.2022 5.94426 39.8999L6.24213 39.0416L6.8934 39.6727C7.12331 39.8948 7.42832 40.0223 7.74789 40.0299L8.65664 40.0488L8.25654 40.8629C8.11608 41.15 8.08904 41.4794 8.18081 41.7856L8.4446 42.6564L7.54468 42.5302C7.22836 42.4853 6.90676 42.562 6.64476 42.7448L5.89882 43.2636L5.74357 42.3674C5.68841 42.0529 5.51613 41.7711 5.26143 41.5786L4.53821 41.0295L5.34094 40.6029Z" fill="white"/>
<path d="M46.9308 54.0501C46.9648 53.851 46.9506 53.6467 46.8893 53.4544C46.828 53.262 46.7215 53.0871 46.5786 52.9444L25.1597 31.5255C25.017 31.3825 24.8421 31.2759 24.6497 31.2145C24.4573 31.1532 24.2529 31.1389 24.0538 31.1729C23.8547 31.2069 23.6667 31.2882 23.5055 31.41C23.3444 31.5317 23.2148 31.6904 23.1276 31.8726L3.49597 72.927C3.38441 73.1623 3.34835 73.4263 3.39275 73.6829C3.43714 73.9395 3.55982 74.176 3.74395 74.3602C3.92808 74.5443 4.16466 74.667 4.42125 74.7114C4.67783 74.7558 4.94187 74.7197 5.17717 74.6082L22.8803 66.1416L30.8849 62.3172L46.2328 54.9765C46.4147 54.8891 46.5731 54.7594 46.6945 54.5982C46.816 54.437 46.897 54.249 46.9308 54.0501ZM24.6359 34.5711L32.479 42.4154C30.6689 42.6908 28.8203 42.5592 27.0675 42.0301C25.3147 41.5011 23.7019 40.588 22.3464 39.3572L24.6359 34.5711ZM21.2066 41.7402C23.8585 43.9136 27.1811 45.1017 30.6097 45.1026C31.9624 45.0981 33.3083 44.9108 34.6108 44.546L37.0695 47.0084C31.2166 48.7587 24.9101 48.1357 19.5128 45.2742L21.2066 41.7402ZM18.4173 47.5739C21.4904 49.1916 24.8589 50.1709 28.3203 50.4529C31.7818 50.7349 35.2644 50.3137 38.5588 49.2147L39.099 49.0355L41.1463 51.0814L35.5764 53.3092C32.494 54.5292 29.16 54.9769 25.865 54.6133C22.5699 54.2496 19.4138 53.0856 16.6717 51.2228L18.4173 47.5739ZM7.31022 70.7901L9.59474 66.0128C11.3958 66.5857 13.2615 66.9309 15.1483 67.0402L7.31022 70.7901ZM21.9046 63.8104C21.6282 63.8874 21.3493 63.9467 21.0703 64.0123C20.8419 64.0653 20.6159 64.1284 20.3862 64.1739C20.0644 64.237 19.7387 64.2799 19.4144 64.3266C19.2112 64.3569 19.0105 64.3973 18.8085 64.42C18.4715 64.4591 18.1333 64.4768 17.7988 64.4995C17.6044 64.5121 17.41 64.5361 17.2157 64.5424C16.89 64.555 16.5631 64.5424 16.2375 64.5424C16.0292 64.5424 15.8222 64.5487 15.6153 64.5424C15.3224 64.5311 15.0321 64.4982 14.7406 64.4743C14.4995 64.4541 14.2584 64.444 14.0186 64.4162C13.7788 64.3884 13.5251 64.3367 13.2777 64.2988C12.9988 64.2546 12.7173 64.2193 12.4397 64.1638C12.2327 64.1221 12.0282 64.0628 11.8212 64.0148C11.5094 63.9429 11.1964 63.8773 10.8885 63.7902C10.8228 63.7712 10.7622 63.7447 10.6928 63.7258L12.244 60.4808L12.403 60.5729C12.5734 60.6701 12.7489 60.7547 12.9218 60.8468C13.226 61.0096 13.5302 61.1724 13.8394 61.3201C14.0426 61.4173 14.2496 61.5031 14.4553 61.594C14.7406 61.7202 15.0258 61.8464 15.3149 61.9613C15.5307 62.0459 15.7503 62.1216 15.9687 62.1998C16.2539 62.3021 16.5392 62.4043 16.8282 62.4952C17.0491 62.5646 17.2725 62.6214 17.4959 62.6896C17.7874 62.7703 18.079 62.8486 18.3718 62.9193C18.5952 62.9723 18.8199 63.0202 19.0433 63.0657C19.3424 63.1275 19.6416 63.1831 19.9432 63.2323C20.1653 63.2689 20.3875 63.303 20.6096 63.332C20.9176 63.3724 21.2256 63.4065 21.5335 63.4342C21.7532 63.4544 21.9728 63.4734 22.1936 63.4872C22.3072 63.4872 22.4183 63.5087 22.5319 63.5138L21.9046 63.8104ZM29.8827 59.9948C27.1562 60.8899 24.2694 61.1898 21.4172 60.8743C18.5649 60.5588 15.8134 59.6353 13.3484 58.166L15.5711 53.5199C19.2969 55.9608 23.654 57.2614 28.1081 57.2623C30.9848 57.2648 33.8355 56.7191 36.5078 55.6543L42.5788 53.2246C42.7364 53.1584 42.8782 53.06 42.9953 52.9356L43.528 53.4682L29.8827 59.9948Z" fill="white"/>
</svg>
