<svg width="83" height="69" viewBox="0 0 83 69" fill="none" xmlns="http://www.w3.org/2000/svg">
<path d="M34.4862 58.6943H33.7909V50.768C33.7909 50.629 33.7909 50.629 33.7909 50.4899C32.4003 43.2589 25.7256 40.895 21.832 40.0606C19.1899 39.5044 16.5478 38.8091 13.7667 37.8357C12.3761 37.2795 10.8465 37.6967 9.73401 38.6701L8.62155 37.8357C8.48249 37.6967 8.34343 37.5576 8.34343 37.4185C8.20438 37.2795 8.20438 37.0014 8.20438 36.8623V32.1344C8.20438 31.0219 7.78721 30.0485 6.95286 29.2142C6.11852 28.5189 5.14512 27.9626 4.03266 27.9626C1.80774 27.9626 0 29.7704 0 31.9953V37.4185C0 39.6435 0.556229 41.8684 1.66869 43.8152C6.53569 52.5758 14.601 56.4694 17.7993 57.5818C18.0774 57.7209 18.2165 57.86 18.2165 58.1381V58.4162H17.7993C15.9916 58.4162 14.462 59.9458 14.462 61.7536V65.23C14.462 66.8987 15.7135 68.1502 17.3822 68.1502H35.0424C36.5721 68.1502 37.9626 66.7596 37.9626 65.23V61.7536C37.8236 60.2239 36.2939 58.6943 34.4862 58.6943ZM18.9118 55.3569C16.5478 54.5226 8.76061 50.9071 4.17172 42.7027C3.33737 41.1731 2.9202 39.5044 2.9202 37.6967V32.2734C2.9202 31.5781 3.47643 31.0219 4.17172 31.0219C4.44983 31.0219 4.867 31.161 5.00606 31.4391C5.14512 31.5781 5.42323 31.8562 5.42323 32.4125V37.1404C5.42323 37.6967 5.56229 38.2529 5.8404 38.8091C6.11852 39.3653 6.53569 39.7825 6.95286 40.1997L8.48249 41.3121C8.48249 41.8684 8.48249 42.4246 8.62155 42.8418C8.89966 43.9542 9.73401 44.9276 10.7074 45.3448L19.1899 49.5165C19.8852 49.7946 20.7195 49.5165 20.9976 48.8212C21.2758 48.1259 20.9976 47.2916 20.3024 47.0135L11.8199 42.8418C11.5418 42.7027 11.2636 42.4246 11.1246 42.0074C10.9855 41.5903 11.1246 41.3121 11.2636 40.895C11.5418 40.4778 12.237 40.1997 12.7933 40.4778C15.7135 41.4512 18.4946 42.2855 21.2758 42.8418C24.4741 43.5371 29.8973 45.3448 31.0098 50.9071V58.6943H20.9976V58.4162C20.9976 57.0256 20.1633 55.7741 18.9118 55.3569ZM35.0424 65.5081C35.0424 65.6472 35.0424 65.6472 35.0424 65.5081L17.3822 65.6472C17.2431 65.6472 17.2431 65.5081 17.2431 65.5081V62.0317C17.2431 61.7536 17.5212 61.4754 17.7993 61.4754H34.4862C34.7643 61.4754 35.0424 61.7536 35.0424 62.0317V65.5081Z" fill="white"/>
<path d="M78.2896 28.1017C77.1771 28.1017 76.2037 28.5189 75.5084 29.2141C74.8131 29.9094 74.2569 31.0219 74.2569 32.1343V36.8623C74.2569 37.0013 74.2569 37.1404 74.1178 37.4185C74.1178 37.5576 73.9788 37.6966 73.8397 37.8357L72.7273 38.67C71.6148 37.6966 70.0852 37.4185 68.6946 37.8357C65.9135 38.8091 63.2714 39.5044 60.6293 40.0606C56.7357 40.8949 50.0609 43.2589 48.6704 50.4899C48.6704 50.629 48.6704 50.629 48.6704 50.768V58.6943H47.9751C46.1673 58.6943 44.6377 60.2239 44.6377 62.0317V65.5081C44.6377 67.1768 45.8892 68.4283 47.5579 68.4283H65.2182C66.7478 68.4283 68.1384 67.0377 68.1384 65.5081V62.0317C68.1384 60.2239 66.6087 58.6943 64.801 58.6943H64.3838V58.4162C64.3838 58.1381 64.5229 57.999 64.801 57.8599C67.9993 56.6084 76.0646 52.7148 80.9316 44.0933C82.0441 42.1465 82.6003 40.0606 82.6003 37.6966V32.2734C82.3222 29.9094 80.5145 28.1017 78.2896 28.1017ZM65.0791 62.0317V65.5081L64.9401 65.6471H47.4188C47.2798 65.6471 47.2798 65.5081 47.2798 65.5081V62.0317C47.2798 61.7535 47.5579 61.4754 47.836 61.4754H64.5229C64.801 61.4754 65.0791 61.7535 65.0791 62.0317ZM79.5411 37.6966C79.5411 39.5044 79.1239 41.1731 78.2896 42.7027C73.8397 50.629 66.4697 54.1054 63.4104 55.3569C62.1589 55.9131 61.3246 57.1646 61.3246 58.4162V58.6943H51.3124V50.9071C52.4249 45.3448 57.8481 43.537 61.0464 42.8418C63.8276 42.2855 66.6087 41.4512 69.5289 40.4778C70.0852 40.3387 70.6414 40.4778 71.0586 40.895C71.3367 41.1731 71.3367 41.5902 71.1976 42.0074C71.0586 42.4246 70.9195 42.7027 70.5023 42.8418L62.0198 47.0135C61.3246 47.2916 61.0464 48.1259 61.3246 48.8212C61.6027 49.5165 62.437 49.7946 63.1323 49.5165L71.6148 45.3448C72.7273 44.7886 73.4225 43.9542 73.7007 42.8418C73.8397 42.2855 73.8397 41.7293 73.8397 41.1731L75.3693 40.0606C75.7865 39.6434 76.2037 39.2263 76.4818 38.67C76.7599 38.1138 76.899 37.5576 76.899 37.0013V32.2734C76.899 31.9953 77.038 31.5781 77.3161 31.4391C77.4552 31.3 77.7333 31.0219 78.2896 31.0219C78.9848 31.0219 79.5411 31.5781 79.5411 32.2734V37.6966Z" fill="white"/>
<path d="M40.4999 7.13363L39.2931 5.4983C38.6407 4.61429 37.9101 3.86967 37.1164 3.26827L37.1163 3.26821C35.5591 2.08802 33.8147 1.5 31.8947 1.5C29.2862 1.5 26.9145 2.51833 25.1862 4.3551L40.4999 7.13363ZM40.4999 7.13363L41.7069 5.49836M40.4999 7.13363L41.7069 5.49836M41.7069 5.49836C42.3596 4.61399 43.09 3.86957 43.8835 3.26813C45.4411 2.08796 47.1854 1.5 49.1053 1.5C51.7138 1.5 54.0853 2.51833 55.8136 4.35518C57.5253 6.17454 58.5 8.69415 58.5 11.4848C58.5 14.2768 57.4589 16.9042 54.9869 19.8269L54.9869 19.827C52.7285 22.4973 49.4516 25.24 45.4886 28.5492L45.4885 28.5493L45.4529 28.579C44.1201 29.6922 42.6044 30.9582 41.031 32.3064L41.0303 32.3071C40.8889 32.4284 40.7008 32.5 40.5 32.5C40.2993 32.5 40.1115 32.4287 39.9693 32.3066L39.9683 32.3058C38.3832 30.9478 36.8576 29.6736 35.518 28.5549L35.5124 28.5502L35.5123 28.5501M41.7069 5.49836L35.5123 28.5501M35.5123 28.5501C31.5488 25.2404 28.2718 22.4973 26.0134 19.8272C23.5413 16.9041 22.5 14.2767 22.5 11.485C22.5 8.69419 23.4747 6.17461 25.186 4.35524L35.5123 28.5501Z" stroke="white" stroke-width="3"/>
</svg>
