<svg width="80" height="95" viewBox="0 0 80 95" fill="none" xmlns="http://www.w3.org/2000/svg">
<path d="M57.783 38.224L55.4196 35.8606L36.1768 55.1033L29.5056 48.4321L27.1254 50.8123L36.1768 59.847L57.783 38.224Z" fill="white"/>
<path d="M0.591309 55.1707C0.591309 77.3468 21.7617 94.5613 39.9819 94.5613C58.2022 94.5613 79.3725 77.3468 79.3725 55.1707V7.66731L39.4288 0.694336L0.591309 7.66731V55.1707ZM3.9437 10.4833L39.4288 4.04673L76.0201 10.4833V55.1707C76.0201 75.1342 56.3081 91.2089 39.9819 91.2089C23.6558 91.2089 3.9437 75.1342 3.9437 55.1707V10.4833Z" fill="white"/>
<path d="M39.9824 81.152C51.4308 81.152 65.9634 68.9158 65.9634 55.171V18.9316L39.4628 14.2886L14.0013 18.8814V55.171C14.0013 68.9158 28.534 81.152 39.9824 81.152ZM17.3537 21.6806L39.4628 17.6913L62.611 21.7476V55.171C62.611 66.9044 49.8552 77.7997 39.9824 77.7997C30.1096 77.7997 17.3537 66.8206 17.3537 55.171V21.6806Z" fill="white"/>
</svg>
