<svg width="106" height="106" viewBox="0 0 106 106" fill="none" xmlns="http://www.w3.org/2000/svg">
<path d="M7.97766 42.282C0.00744628 50.2523 0.00744628 63.1791 7.97766 71.1494L20.0038 83.1755C25.2335 70.5625 35.2693 59.9487 48.8749 54.3082L36.8488 42.282C28.876 34.308 15.9504 34.308 7.97766 42.282Z" stroke="white" stroke-width="3" stroke-miterlimit="10" stroke-linecap="round" stroke-linejoin="round"/>
<path d="M20.0028 83.1757L27.2228 90.3906C32.4512 77.7788 42.4883 67.16 56.094 61.5233L48.8791 54.3083C35.2709 59.9438 25.2351 70.5626 20.0028 83.1757Z" stroke="white" stroke-width="3" stroke-miterlimit="10" stroke-linecap="round" stroke-linejoin="round"/>
<path d="M27.224 90.3854V70.7986V90.3854Z" stroke="white" stroke-width="3" stroke-miterlimit="10" stroke-linecap="round" stroke-linejoin="round"/>
<path d="M34.4412 63.2073L34.4437 78.0135L34.4412 63.2073Z" stroke="white" stroke-width="3" stroke-miterlimit="10" stroke-linecap="round" stroke-linejoin="round"/>
<path d="M41.6589 57.9573V70.4197V57.9573Z" stroke="white" stroke-width="3" stroke-miterlimit="10" stroke-linecap="round" stroke-linejoin="round"/>
<path d="M48.8756 54.3083V65.1722V54.3083Z" stroke="white" stroke-width="3" stroke-miterlimit="10" stroke-linecap="round" stroke-linejoin="round"/>
<path d="M28.9417 86.6863L49.6295 101.817C54.1677 105.136 61.4081 104.325 65.7167 100.016C70.0277 95.7066 70.8366 88.4674 67.5169 83.9305L52.3866 63.249C41.9553 68.5247 33.9238 76.8547 28.9417 86.6863Z" stroke="white" stroke-width="3" stroke-miterlimit="10" stroke-linecap="round" stroke-linejoin="round"/>
<path d="M41.7256 88.061L52.3406 95.8245C54.6703 97.5265 58.3881 97.1106 60.5979 94.9008C62.8102 92.6885 63.2262 88.9707 61.5216 86.6448L53.7568 76.0298C48.4021 78.7359 44.2811 83.0112 41.7256 88.061Z" stroke="white" stroke-width="3" stroke-miterlimit="10" stroke-linecap="round" stroke-linejoin="round"/>
<path d="M83.6511 1.79297C72.3764 1.79297 63.2375 10.9357 63.2375 22.2065V39.2161C75.8544 33.9928 90.4577 33.5858 104.067 39.2161L104.065 22.2065C104.065 10.9357 94.9245 1.79297 83.6511 1.79297Z" stroke="white" stroke-width="3" stroke-miterlimit="10" stroke-linecap="round" stroke-linejoin="round"/>
<path d="M63.2375 39.2163V49.4231C75.8544 44.1998 90.4603 43.7877 104.067 49.4231L104.068 39.2163C90.4577 33.5809 75.8544 33.993 63.2375 39.2163Z" stroke="white" stroke-width="3" stroke-miterlimit="10" stroke-linecap="round" stroke-linejoin="round"/>
<path d="M63.2438 49.4194L77.0956 35.5701L63.2438 49.4194Z" stroke="white" stroke-width="3" stroke-miterlimit="10" stroke-linecap="round" stroke-linejoin="round"/>
<path d="M87.5653 35.3022L77.0957 45.7757L87.5653 35.3022Z" stroke="white" stroke-width="3" stroke-miterlimit="10" stroke-linecap="round" stroke-linejoin="round"/>
<path d="M96.3824 36.6941L87.5688 45.5089L96.3824 36.6941Z" stroke="white" stroke-width="3" stroke-miterlimit="10" stroke-linecap="round" stroke-linejoin="round"/>
<path d="M104.067 39.2163L96.3827 46.9007L104.067 39.2163Z" stroke="white" stroke-width="3" stroke-miterlimit="10" stroke-linecap="round" stroke-linejoin="round"/>
<path d="M67.0751 48.0155L71.0034 73.3474C71.8633 78.9038 77.5587 83.447 83.6509 83.447C89.7469 83.4522 95.4397 78.9038 96.2996 73.3487L100.224 48.0206C89.1166 44.3742 77.5511 44.5886 67.0751 48.0155Z" stroke="white" stroke-width="3" stroke-miterlimit="10" stroke-linecap="round" stroke-linejoin="round"/>
<path d="M75.1436 58.0262L77.1594 71.0271C77.5996 73.8774 80.5238 76.2083 83.6509 76.2083C86.778 76.2134 89.701 73.8786 90.1411 71.0271L92.1531 58.0262C86.4565 56.1558 80.5161 56.263 75.1436 58.0262Z" stroke="white" stroke-width="3" stroke-miterlimit="10" stroke-linecap="round" stroke-linejoin="round"/>
</svg>
