<svg width="73" height="73" viewBox="0 0 73 73" fill="none" xmlns="http://www.w3.org/2000/svg">
<path d="M14.3973 34.8593V45.6577C14.4012 47.9937 15.256 50.2483 16.8018 51.9997C18.3476 53.7512 20.4786 54.8794 22.7961 55.1735V57.6559H17.9968C15.7701 57.6584 13.6353 58.5441 12.0608 60.1186C10.4862 61.6931 9.60056 63.8279 9.59802 66.0546V72.0537H11.9977V66.0546C11.9996 64.4642 12.6322 62.9394 13.7569 61.8147C14.8815 60.6901 16.4063 60.0574 17.9968 60.0555H22.9664C23.2283 61.0845 23.8256 61.9968 24.6638 62.6485C25.5021 63.3001 26.5336 63.6539 27.5953 63.6539C28.6571 63.6539 29.6886 63.3001 30.5268 62.6485C31.3651 61.9968 31.9624 61.0845 32.2242 60.0555H37.1939C38.7844 60.0574 40.3092 60.6901 41.4338 61.8147C42.5584 62.9394 43.1911 64.4642 43.193 66.0546V72.0537H45.5927V66.0546C45.5901 63.8279 44.7044 61.6931 43.1299 60.1186C41.5554 58.5441 39.4206 57.6584 37.1939 57.6559H32.3946V55.1735C34.7121 54.8794 36.843 53.7512 38.3889 51.9997C39.9347 50.2483 40.7895 47.9937 40.7934 45.6577V36.0591C42.7021 36.0572 44.532 35.2981 45.8817 33.9485C47.2313 32.5988 47.9904 30.7689 47.9923 28.8602V22.8611C47.9923 22.5429 47.8659 22.2377 47.6409 22.0127C47.4159 21.7877 47.1107 21.6613 46.7925 21.6613H27.5953C24.0963 21.6654 20.7417 23.0572 18.2675 25.5314C15.7933 28.0056 14.4014 31.3602 14.3973 34.8593ZM27.5953 61.2554C26.9589 61.2554 26.3486 61.0025 25.8985 60.5525C25.4485 60.1025 25.1957 59.4921 25.1957 58.8557V55.2562H29.995V58.8557C29.995 59.4921 29.7422 60.1025 29.2921 60.5525C28.8421 61.0025 28.2318 61.2554 27.5953 61.2554ZM31.1948 52.8566H23.9959C22.0872 52.8547 20.2572 52.0956 18.9076 50.746C17.5579 49.3963 16.7989 47.5664 16.7969 45.6577V43.258H17.9968C17.9968 43.8945 18.2496 44.5048 18.6996 44.9548C19.1496 45.4049 19.76 45.6577 20.3964 45.6577H23.9959C24.6323 45.6577 25.2427 45.4049 25.6927 44.9548C26.1427 44.5048 26.3955 43.8945 26.3955 43.258H28.7952C28.7952 43.8945 29.048 44.5048 29.498 44.9548C29.948 45.4049 30.5584 45.6577 31.1948 45.6577H34.7943C35.4307 45.6577 36.041 45.4049 36.4911 44.9548C36.9411 44.5048 37.1939 43.8945 37.1939 43.258H38.3937V45.6577C38.3918 47.5664 37.6328 49.3963 36.2831 50.746C34.9335 52.0956 33.1035 52.8547 31.1948 52.8566ZM20.3964 43.258V40.8584H23.9959V43.258H20.3964ZM31.1948 43.258V40.8584H34.7943V43.258H31.1948ZM38.3937 40.8584H37.1939C37.1939 40.222 36.9411 39.6116 36.4911 39.1616C36.041 38.7116 35.4307 38.4587 34.7943 38.4587H31.1948C30.5584 38.4587 29.948 38.7116 29.498 39.1616C29.048 39.6116 28.7952 40.222 28.7952 40.8584H26.3955C26.3955 40.222 26.1427 39.6116 25.6927 39.1616C25.2427 38.7116 24.6323 38.4587 23.9959 38.4587H20.3964C19.76 38.4587 19.1496 38.7116 18.6996 39.1616C18.2496 39.6116 17.9968 40.222 17.9968 40.8584H16.7969V36.0591H38.3937V40.8584ZM35.3522 33.6595H32.2326L33.1265 32.3193C34.7706 29.8593 35.7438 27.0125 35.9497 24.0609H39.5408C39.341 26.5371 38.5122 28.9213 37.1327 30.9875L35.3522 33.6595ZM45.5927 28.8602C45.5927 30.133 45.087 31.3537 44.187 32.2538C43.2869 33.1538 42.0662 33.6595 40.7934 33.6595H38.2354L39.1292 32.3193C40.772 29.8589 41.7439 27.0122 41.9488 24.0609H45.5927V28.8602ZM27.5953 24.0609H33.5417C33.3419 26.5371 32.5131 28.9213 31.1336 30.9875L29.3531 33.6595H16.8641C17.1623 31.0211 18.4208 28.5846 20.3999 26.8144C22.3789 25.0442 24.9401 24.0641 27.5953 24.0609Z" fill="white"/>
<path d="M49.2954 24.7736C49.1932 25.0036 49.1659 25.2599 49.2173 25.5063C49.2688 25.7526 49.3965 25.9766 49.5822 26.1464C49.768 26.3162 50.0024 26.4234 50.2524 26.4526C50.5024 26.4818 50.7552 26.4317 50.9752 26.3094L56.1656 23.4298C58.9487 24.3727 61.9806 24.2645 64.6895 23.1258C67.3984 21.9871 69.597 19.8965 70.8706 17.2483C72.1442 14.6002 72.4048 11.5775 71.6032 8.75049C70.8016 5.92344 68.9932 3.48743 66.5191 1.90192C64.0451 0.316408 61.0764 -0.308999 58.1729 0.143656C55.2695 0.596311 52.6321 2.09574 50.7581 4.35913C48.8841 6.62251 47.9031 9.4934 48.0001 12.4303C48.0971 15.3672 49.2654 18.1671 51.2847 20.3019L49.2954 24.7736ZM50.392 12.0627C50.3869 10.0049 51.0417 7.99965 52.2601 6.34133C53.4785 4.68302 55.1965 3.45899 57.1618 2.84892C59.1271 2.23884 61.2362 2.27487 63.1795 2.95171C65.1229 3.62855 66.798 4.91054 67.9591 6.6095C69.1202 8.30846 69.7061 10.3349 69.6307 12.3913C69.5553 14.4478 68.8227 16.4259 67.5403 18.0353C66.258 19.6447 64.4935 20.8006 62.5058 21.3334C60.5182 21.8661 58.4121 21.7477 56.4967 20.9954C56.3322 20.931 56.1555 20.9037 55.9792 20.9155C55.8029 20.9273 55.6313 20.978 55.4769 21.0638L52.9453 22.4699L53.8151 20.5154C53.9174 20.2852 53.9447 20.0286 53.893 19.782C53.8413 19.5355 53.7133 19.3114 53.5272 19.1416C52.5423 18.2435 51.7551 17.1505 51.2153 15.9318C50.6756 14.7131 50.3952 13.3955 50.392 12.0627Z" fill="white"/>
<path d="M10.7979 21.6612C12.085 21.6629 13.3619 21.4333 14.5677 20.9833L18.7239 22.7639C18.8731 22.8285 19.0341 22.8616 19.1967 22.8611C19.3686 22.8611 19.5386 22.8241 19.695 22.7527C19.8515 22.6813 19.9908 22.5771 20.1034 22.4472C20.216 22.3172 20.2994 22.1646 20.3479 21.9996C20.3964 21.8346 20.4089 21.6611 20.3845 21.4909L19.7306 16.9123C20.9497 15.1308 21.6002 13.0216 21.5963 10.8628C21.5963 8.72713 20.963 6.63937 19.7764 4.86358C18.5899 3.0878 16.9034 1.70374 14.9303 0.886436C12.9571 0.0691318 10.7859 -0.144712 8.69125 0.271946C6.59656 0.688604 4.67247 1.71705 3.16229 3.22723C1.65211 4.73741 0.623663 6.6615 0.207005 8.75619C-0.209654 10.8509 0.00419044 13.0221 0.821495 14.9952C1.6388 16.9684 3.02286 18.6548 4.79864 19.8414C6.57443 21.0279 8.66219 21.6612 10.7979 21.6612ZM10.7979 2.4641C13.0246 2.46664 15.1594 3.35232 16.7339 4.92684C18.3084 6.50136 19.1941 8.63614 19.1967 10.8628C19.1991 12.6761 18.6093 14.4405 17.5169 15.8877C17.3257 16.142 17.2432 16.4617 17.2877 16.7768L17.7089 19.7175L15.0561 18.5813C14.9067 18.5173 14.7459 18.4842 14.5833 18.4842C14.4208 18.4842 14.26 18.5173 14.1106 18.5813C12.9653 19.0726 11.725 19.3029 10.4796 19.2555C9.23428 19.2081 8.01509 18.8841 6.91047 18.307C5.80586 17.73 4.84351 16.9143 4.09321 15.9192C3.34292 14.9241 2.82348 13.7745 2.57257 12.5538C2.32166 11.333 2.34557 10.0717 2.64256 8.86139C2.93955 7.65103 3.50218 6.52194 4.28964 5.55599C5.07711 4.59004 6.06968 3.81144 7.19536 3.27666C8.32105 2.74187 9.55165 2.46431 10.7979 2.4641Z" fill="white"/>
<path d="M58.1908 10.8629H58.7907V8.46323H58.1908C58.0317 8.46323 57.8791 8.40003 57.7666 8.28752C57.6541 8.17502 57.5909 8.02243 57.5909 7.86332C57.5909 7.70422 57.6541 7.55163 57.7666 7.43912C57.8791 7.32662 58.0317 7.26341 58.1908 7.26341H61.7903C61.9494 7.26341 62.102 7.32662 62.2145 7.43912C62.327 7.55163 62.3902 7.70422 62.3902 7.86332C62.391 8.58872 62.2123 9.30304 61.87 9.9426C61.5277 10.5822 61.0325 11.1271 60.4285 11.5288C59.9245 11.8642 59.5112 12.3191 59.2255 12.8529C58.9397 13.3867 58.7904 13.9829 58.7907 14.5883V15.6622H61.1904V14.5883C61.1903 14.3779 61.2423 14.1707 61.3417 13.9852C61.4412 13.7997 61.585 13.6417 61.7603 13.5253C62.6932 12.9047 63.458 12.0629 63.9866 11.075C64.5152 10.0871 64.7911 8.98376 64.7899 7.86332C64.7899 7.06779 64.4738 6.30484 63.9113 5.74232C63.3488 5.17979 62.5858 4.86377 61.7903 4.86377H58.1908C57.3953 4.86377 56.6324 5.17979 56.0698 5.74232C55.5073 6.30484 55.1913 7.06779 55.1913 7.86332C55.1913 8.65885 55.5073 9.4218 56.0698 9.98433C56.6324 10.5469 57.3953 10.8629 58.1908 10.8629Z" fill="white"/>
<path d="M61.1904 16.8619H58.7908V19.2616H61.1904V16.8619Z" fill="white"/>
<path d="M8.99821 9.66305H9.59812V7.2634H8.99821C8.8391 7.2634 8.68651 7.2002 8.57401 7.08769C8.4615 6.97519 8.3983 6.8226 8.3983 6.66349C8.3983 6.50439 8.4615 6.3518 8.57401 6.23929C8.68651 6.12679 8.8391 6.06358 8.99821 6.06358H12.5977C12.7568 6.06358 12.9094 6.12679 13.0219 6.23929C13.1344 6.3518 13.1976 6.50439 13.1976 6.66349C13.1984 7.38889 13.0197 8.10321 12.6774 8.74277C12.3351 9.38233 11.8399 9.92725 11.2359 10.3289C10.7318 10.6644 10.3186 11.1193 10.0328 11.6531C9.7471 12.1869 9.59776 12.783 9.59812 13.3885V14.4623H11.9978V13.3885C11.9977 13.178 12.0497 12.9708 12.1491 12.7853C12.2486 12.5999 12.3923 12.4419 12.5677 12.3254C13.5005 11.7049 14.2654 10.8631 14.794 9.87518C15.3226 8.88728 15.5985 7.78393 15.5972 6.66349C15.5972 5.86796 15.2812 5.10501 14.7187 4.54249C14.1562 3.97996 13.3932 3.66394 12.5977 3.66394H8.99821C8.20268 3.66394 7.43973 3.97996 6.87721 4.54249C6.31468 5.10501 5.99866 5.86796 5.99866 6.66349C5.99866 7.45902 6.31468 8.22197 6.87721 8.7845C7.43973 9.34702 8.20268 9.66305 8.99821 9.66305Z" fill="white"/>
<path d="M11.9977 15.6621H9.59802V18.0618H11.9977V15.6621Z" fill="white"/>
<path d="M29.4982 49.2571H25.6924L24.8441 48.4088L23.1476 50.1054L24.3474 51.3052C24.5724 51.5302 24.8775 51.6567 25.1957 51.6567H29.995C30.3131 51.6567 30.6183 51.5302 30.8432 51.3052L32.0431 50.1054L30.3465 48.4088L29.4982 49.2571Z" fill="white"/>
<path d="M61.1904 33.6594C61.1904 34.3713 61.4015 35.0672 61.7971 35.6592C62.1926 36.2511 62.7547 36.7124 63.4124 36.9849C64.0702 37.2573 64.7939 37.3286 65.4921 37.1897C66.1903 37.0508 66.8317 36.708 67.3351 36.2046C67.8385 35.7012 68.1813 35.0598 68.3202 34.3616C68.4591 33.6634 68.3878 32.9397 68.1154 32.2819C67.8429 31.6242 67.3816 31.0621 66.7896 30.6666C66.1977 30.271 65.5018 30.0599 64.7899 30.0599C63.8353 30.0599 62.9197 30.4392 62.2447 31.1142C61.5697 31.7892 61.1904 32.7048 61.1904 33.6594ZM65.9897 33.6594C65.9897 33.8967 65.9193 34.1287 65.7875 34.326C65.6557 34.5233 65.4683 34.6771 65.249 34.7679C65.0298 34.8587 64.7886 34.8825 64.5558 34.8362C64.3231 34.7899 64.1093 34.6756 63.9415 34.5078C63.7737 34.34 63.6594 34.1262 63.6131 33.8935C63.5668 33.6607 63.5906 33.4195 63.6814 33.2002C63.7722 32.981 63.926 32.7936 64.1233 32.6618C64.3206 32.5299 64.5526 32.4596 64.7899 32.4596C65.1081 32.4596 65.4133 32.586 65.6383 32.811C65.8633 33.036 65.9897 33.3412 65.9897 33.6594Z" fill="white"/>
<path d="M33.5945 15.6621C34.3064 15.6621 35.0023 15.451 35.5942 15.0554C36.1861 14.6599 36.6475 14.0978 36.9199 13.4401C37.1924 12.7823 37.2636 12.0586 37.1248 11.3604C36.9859 10.6622 36.6431 10.0208 36.1397 9.51739C35.6363 9.014 34.9949 8.67119 34.2967 8.5323C33.5985 8.39341 32.8747 8.46469 32.217 8.73713C31.5593 9.00956 30.9971 9.47092 30.6016 10.0628C30.2061 10.6548 29.995 11.3507 29.995 12.0626C29.995 13.0172 30.3742 13.9328 31.0493 14.6078C31.7243 15.2828 32.6398 15.6621 33.5945 15.6621ZM33.5945 10.8628C33.8318 10.8628 34.0637 10.9331 34.261 11.065C34.4584 11.1968 34.6121 11.3842 34.7029 11.6034C34.7938 11.8227 34.8175 12.0639 34.7712 12.2967C34.7249 12.5294 34.6107 12.7432 34.4429 12.911C34.2751 13.0788 34.0613 13.1931 33.8285 13.2394C33.5958 13.2857 33.3545 13.2619 33.1353 13.1711C32.9161 13.0803 32.7287 12.9265 32.5968 12.7292C32.465 12.5319 32.3946 12.2999 32.3946 12.0626C32.3946 11.7444 32.521 11.4392 32.7461 11.2142C32.9711 10.9892 33.2762 10.8628 33.5945 10.8628Z" fill="white"/>
<path d="M5.99863 25.2607C5.28673 25.2607 4.59081 25.4718 3.99888 25.8674C3.40695 26.2629 2.9456 26.825 2.67316 27.4828C2.40073 28.1405 2.32945 28.8642 2.46833 29.5624C2.60722 30.2607 2.95004 30.902 3.45343 31.4054C3.95682 31.9088 4.59819 32.2516 5.29641 32.3905C5.99464 32.5294 6.71837 32.4581 7.37609 32.1857C8.03381 31.9132 8.59596 31.4519 8.99148 30.86C9.38699 30.268 9.5981 29.5721 9.5981 28.8602C9.5981 27.9056 9.21887 26.99 8.54384 26.315C7.86881 25.64 6.95327 25.2607 5.99863 25.2607ZM5.99863 30.06C5.76133 30.06 5.52936 29.9897 5.33205 29.8578C5.13474 29.726 4.98096 29.5386 4.89014 29.3194C4.79933 29.1001 4.77557 28.8589 4.82187 28.6261C4.86816 28.3934 4.98244 28.1796 5.15023 28.0118C5.31803 27.844 5.53182 27.7297 5.76456 27.6834C5.9973 27.6371 6.23855 27.6609 6.45779 27.7517C6.67702 27.8425 6.86441 27.9963 6.99625 28.1936C7.12809 28.3909 7.19846 28.6229 7.19846 28.8602C7.19846 29.1784 7.07205 29.4836 6.84704 29.7086C6.62203 29.9336 6.31685 30.06 5.99863 30.06Z" fill="white"/>
<path d="M59.9906 39.6585C58.6892 39.6593 57.3966 39.8733 56.1644 40.292L50.974 37.4125C50.754 37.2901 50.5012 37.24 50.2512 37.2692C50.0012 37.2985 49.7668 37.4056 49.581 37.5754C49.3953 37.7453 49.2676 37.9692 49.2162 38.2156C49.1647 38.4619 49.192 38.7182 49.2942 38.9482L51.2823 43.4224C49.39 45.4295 48.248 48.0279 48.0488 50.7792C47.8496 53.5304 48.6054 56.2662 50.1888 58.525C51.7723 60.7838 54.0863 62.4273 56.7406 63.1782C59.3949 63.9292 62.227 63.7417 64.7591 62.6472C67.2912 61.5528 69.3683 59.6186 70.6401 57.1707C71.9118 54.7229 72.3003 51.9113 71.7401 49.2103C71.1798 46.5093 69.7051 44.0842 67.5647 42.3441C65.4242 40.6041 62.7491 39.6555 59.9906 39.6585ZM59.9906 61.2553C58.055 61.2577 56.164 60.6742 54.5664 59.5814C52.9687 58.4886 51.7393 56.9378 51.0399 55.133C50.3404 53.3282 50.2037 51.3539 50.6476 49.4699C51.0916 47.5859 52.0955 45.8804 53.5272 44.5778C53.7134 44.408 53.8413 44.184 53.893 43.9374C53.9447 43.6908 53.9175 43.4342 53.8152 43.204L52.9453 41.2495L55.4769 42.6557C55.6314 42.7415 55.8029 42.7921 55.9792 42.8039C56.1555 42.8157 56.3322 42.7885 56.4968 42.7241C57.8115 42.207 59.2242 41.9866 60.634 42.0785C62.0438 42.1704 63.4159 42.5724 64.6524 43.2558C65.8889 43.9392 66.9593 44.8871 67.7873 46.0319C68.6152 47.1766 69.1802 48.4901 69.4419 49.8784C69.7037 51.2667 69.6557 52.6957 69.3015 54.0633C68.9473 55.431 68.2955 56.7036 67.3928 57.7903C66.49 58.877 65.3584 59.7511 64.0789 60.35C62.7994 60.949 61.4034 61.2581 59.9906 61.2553Z" fill="white"/>
<path d="M61.7903 44.4578H58.1908C57.3953 44.4578 56.6324 44.7738 56.0698 45.3363C55.5073 45.8988 55.1913 46.6618 55.1913 47.4573C55.1913 48.2528 55.5073 49.0158 56.0698 49.5783C56.6324 50.1408 57.3953 50.4569 58.1908 50.4569H58.7907V48.0572H58.1908C58.0317 48.0572 57.8791 47.994 57.7666 47.8815C57.6541 47.769 57.5909 47.6164 57.5909 47.4573C57.5909 47.2982 57.6541 47.1456 57.7666 47.0331C57.8791 46.9206 58.0317 46.8574 58.1908 46.8574H61.7903C61.9494 46.8574 62.102 46.9206 62.2145 47.0331C62.327 47.1456 62.3902 47.2982 62.3902 47.4573C62.391 48.1827 62.2123 48.897 61.87 49.5366C61.5277 50.1761 61.0325 50.7211 60.4285 51.1228C59.9245 51.4582 59.5112 51.9131 59.2255 52.4469C58.9397 52.9807 58.7904 53.5769 58.7907 54.1823V55.2562H61.1904V54.1763C61.1903 53.9659 61.2423 53.7586 61.3417 53.5732C61.4412 53.3877 61.585 53.2297 61.7603 53.1133C62.6923 52.4932 63.4566 51.6524 63.9852 50.6656C64.5137 49.6789 64.7902 48.5767 64.7899 47.4573C64.7899 46.6618 64.4738 45.8988 63.9113 45.3363C63.3488 44.7738 62.5858 44.4578 61.7903 44.4578Z" fill="white"/>
<path d="M61.1904 56.4561H58.7908V58.8557H61.1904V56.4561Z" fill="white"/>
</svg>
