<svg width="93" height="61" viewBox="0 0 93 61" fill="none" xmlns="http://www.w3.org/2000/svg">
<path d="M61.1721 0.00076233C60.9763 0.000531211 60.7805 0.00268131 60.5847 0.00724214C57.3742 0.0843841 54.2118 0.804985 51.2849 2.12652C48.358 3.44806 45.7261 5.34348 43.5451 7.70068C40.2978 4.24195 36.0697 1.85996 31.4288 0.874774C26.788 -0.110416 21.9568 0.348634 17.5844 2.18979C13.212 4.03095 9.50786 7.16607 6.96967 11.1742C4.43148 15.1824 3.18085 19.8713 3.38583 24.6111C1.98336 25.3946 0.91427 26.6624 0.378454 28.1769C-0.157362 29.6914 -0.123219 31.3493 0.4745 32.8404C1.07222 34.3316 2.19259 35.5538 3.62613 36.2789C5.05968 37.004 6.70825 37.1823 8.26361 36.7802C9.81897 36.3781 11.1746 35.4231 12.0771 34.0941C12.9796 32.765 13.3671 31.153 13.1672 29.559C12.9674 27.965 12.1937 26.4983 10.991 25.4333C9.78833 24.3682 8.23888 23.7774 6.6324 23.7718C7.10871 21.4612 8.34117 19.3752 10.1351 17.8431C11.9291 16.311 14.1823 15.4203 16.5389 15.3114C18.8956 15.2026 21.2213 15.8818 23.1489 17.242C25.0764 18.6022 26.4959 20.5658 27.1832 22.8227C27.9607 21.8838 28.8063 21.0036 29.7133 20.1892C28.8589 18.2979 27.5924 16.6218 26.0065 15.2832C24.4206 13.9446 22.5555 12.9778 20.5476 12.453C18.5398 11.9283 16.44 11.8591 14.402 12.2507C12.3639 12.6422 10.4393 13.4846 8.7688 14.716C10.2688 11.7121 12.5033 9.1355 15.265 7.22575C18.0266 5.316 21.2259 4.13497 24.5659 3.79183C27.906 3.44869 31.2786 3.95477 34.3708 5.26313C37.4631 6.57149 40.1747 8.63943 42.2542 11.2756C42.4093 11.4725 42.6071 11.6315 42.8327 11.7407C43.0583 11.8498 43.3058 11.9063 43.5564 11.9057C43.807 11.9051 44.0542 11.8475 44.2792 11.7372C44.5043 11.627 44.7013 11.4668 44.8553 11.2692C46.8361 8.7327 49.3811 6.69331 52.2881 5.31268C55.1951 3.93205 58.3841 3.2481 61.6016 3.31576C64.8191 3.38341 67.9765 4.20062 70.8229 5.70223C73.6693 7.20385 76.1263 9.34844 77.9987 11.9659C74.1952 9.91851 69.8422 9.12467 65.5608 9.69722C61.2793 10.2698 57.288 12.1795 54.1561 15.1544C55.3194 15.5453 56.452 16.0223 57.5447 16.5811C60.6875 14.0716 64.6103 12.7428 68.6312 12.8254C72.6522 12.908 76.5171 14.3967 79.5542 17.0331C79.1414 18.5116 79.256 20.0877 79.8785 21.4909C80.5011 22.894 81.5926 24.0366 82.9657 24.7228C84.3389 25.4089 85.9081 25.5957 87.4039 25.2511C88.8998 24.9064 90.229 24.0519 91.1635 22.8341C92.098 21.6162 92.5794 20.1113 92.5252 18.5772C92.4709 17.0431 91.8844 15.5755 90.8662 14.4267C89.848 13.2779 88.4617 12.5197 86.9453 12.2815C85.4288 12.0434 83.8767 12.3402 82.5555 13.1216C80.5485 9.17474 77.4888 5.8603 73.7149 3.54446C69.9409 1.22861 65.5999 0.00178569 61.1721 0L61.1721 0.00076233ZM85.8408 15.4978C86.2823 15.4874 86.7214 15.5654 87.1322 15.7276C87.543 15.8899 87.9171 16.133 88.2324 16.4423C88.5477 16.7516 88.7978 17.1207 88.9679 17.5283C89.138 17.9358 89.2247 18.3734 89.2229 18.8151C89.2236 19.2495 89.1386 19.6798 88.9728 20.0813C88.8071 20.4829 88.5638 20.848 88.2568 21.1554C87.9499 21.4629 87.5854 21.7068 87.1841 21.8732C86.7828 22.0396 86.3526 22.1251 85.9182 22.1251C85.4838 22.1251 85.0536 22.0396 84.6524 21.8732C84.2511 21.7068 83.8865 21.4629 83.5796 21.1554C83.2727 20.848 83.0294 20.4829 82.8636 20.0813C82.6978 19.6798 82.6129 19.2495 82.6136 18.8151C82.6099 17.9496 82.946 17.1176 83.5494 16.4972C84.1529 15.8769 84.9756 15.5181 85.8408 15.4978ZM6.52913 27.0639C6.97067 27.0535 7.40981 27.1319 7.82059 27.2941C8.23137 27.4563 8.60546 27.6991 8.92075 28.0084C9.23604 28.3177 9.48614 28.6871 9.65627 29.0947C9.82639 29.5023 9.91309 29.9399 9.91123 30.3815C9.91135 30.8156 9.82596 31.2452 9.65994 31.6462C9.49392 32.0473 9.25052 32.4119 8.94365 32.7188C8.63677 33.0258 8.27243 33.2693 7.87143 33.4354C7.47043 33.6016 7.04063 33.687 6.60658 33.687C6.17253 33.687 5.74274 33.6016 5.34174 33.4354C4.94074 33.2693 4.5764 33.0258 4.26952 32.7188C3.96264 32.4119 3.71924 32.0473 3.55322 31.6462C3.3872 31.2452 3.30181 30.8156 3.30193 30.3815C3.2983 29.5161 3.63431 28.6836 4.23776 28.0633C4.84121 27.4429 5.66393 27.0842 6.52913 27.0639Z" fill="white"/>
<path d="M45.6716 17.1438C40.0749 17.2986 34.7598 19.6326 30.8585 23.6484C26.9572 27.6643 24.778 33.0446 24.7852 38.6435C24.7845 41.4647 25.3396 44.2585 26.4188 46.8652C27.498 49.4719 29.0801 51.8404 31.0748 53.8356C33.0695 55.8307 35.4376 57.4132 38.0441 58.493C40.6505 59.5728 43.4442 60.1286 46.2654 60.1286C49.0867 60.1286 51.8803 59.5728 54.4867 58.493C57.0932 57.4132 59.4614 55.8307 61.4561 53.8356C63.4508 51.8404 65.0329 49.4719 66.112 46.8652C67.1912 44.2585 67.7463 41.4647 67.7456 38.6435C67.7493 35.7703 67.1766 32.9255 66.0613 30.2776C64.946 27.6298 63.3109 25.2326 61.2527 23.228C59.1945 21.2233 56.755 19.6522 54.0787 18.6071C51.4024 17.562 48.5436 17.0644 45.6716 17.1438ZM45.7427 20.4676C48.1732 20.3977 50.593 20.8163 52.8588 21.6984C55.1247 22.5804 57.1905 23.9079 58.9341 25.6026C60.6776 27.2974 62.0633 29.3249 63.0093 31.5648C63.9552 33.8048 64.4421 36.212 64.4411 38.6435C64.4448 41.0327 63.9774 43.3989 63.0656 45.6073C62.1539 47.8158 60.8157 49.8228 59.1275 51.5135C57.4394 53.2043 55.4345 54.5457 53.2275 55.4608C51.0205 56.376 48.6547 56.8471 46.2655 56.8471C43.8763 56.8471 41.5105 56.376 39.3035 55.4608C37.0965 54.5457 35.0915 53.2043 33.4034 51.5135C31.7153 49.8228 30.3771 47.8158 29.4653 45.6073C28.5536 43.3989 28.0862 41.0327 28.0899 38.6435C28.0879 33.9122 29.9309 29.3667 33.2272 25.9728C36.5236 22.5788 41.0134 20.6037 45.7427 20.4676Z" fill="white"/>
<path d="M43.8447 22.0747C42.12 22.1202 40.4814 22.8384 39.279 24.0758C38.0766 25.3132 37.4057 26.9713 37.4097 28.6967C37.4094 29.5648 37.5802 30.4248 37.9123 31.2268C38.2443 32.0289 38.7311 32.7577 39.3449 33.3717C39.9586 33.9856 40.6873 34.4726 41.4893 34.8048C42.2913 35.1371 43.1509 35.308 44.019 35.308C44.8871 35.308 45.7467 35.1371 46.5487 34.8048C47.3507 34.4726 48.0794 33.9856 48.6931 33.3717C49.3069 32.7577 49.7937 32.0289 50.1257 31.2268C50.4578 30.4248 50.6285 29.5648 50.6283 28.6967C50.6303 27.8128 50.455 26.9376 50.1128 26.1227C49.7706 25.3077 49.2684 24.5697 48.6359 23.9523C48.0034 23.3349 47.2535 22.8504 46.4306 22.5279C45.6076 22.2054 44.7283 22.0514 43.8447 22.0747ZM43.9415 25.3729C44.3836 25.3625 44.8233 25.4409 45.2345 25.6035C45.6457 25.7662 46.0201 26.0098 46.3355 26.3197C46.6509 26.6297 46.9008 26.9996 47.0706 27.408C47.2403 27.8163 47.3263 28.2545 47.3236 28.6967C47.3237 29.1307 47.2384 29.5607 47.0723 29.9618C46.9063 30.3628 46.6629 30.7274 46.356 31.0344C46.0492 31.3413 45.6848 31.5848 45.2838 31.7509C44.8828 31.9171 44.453 32.0025 44.019 32.0025C43.5849 32.0025 43.1551 31.9171 42.7541 31.7509C42.3531 31.5848 41.9888 31.3413 41.6819 31.0344C41.375 30.7274 41.1316 30.3628 40.9656 29.9618C40.7996 29.5607 40.7142 29.1307 40.7143 28.6967C40.709 27.8301 41.0442 26.9964 41.6479 26.3746C42.2515 25.7529 43.0752 25.3932 43.9415 25.3729Z" fill="white"/>
<path d="M52.6556 35.997C52.4296 36.0055 52.2077 36.0605 52.0037 36.1582C47.223 38.418 41.7891 38.8829 36.6939 37.4683C36.4528 37.4006 36.1994 37.3889 35.953 37.4336C35.7065 37.4783 35.4735 37.5784 35.2714 37.7263C35.0693 37.8743 34.9036 38.0659 34.7866 38.2874C34.6696 38.5089 34.6045 38.7541 34.5962 39.0044C34.5521 40.4107 34.8061 41.8103 35.3416 43.1114C35.8771 44.4125 36.682 45.5856 37.7033 46.5534C38.7246 47.5211 39.9392 48.262 41.2672 48.7268C42.5952 49.1915 44.0066 49.3698 45.4085 49.2501C46.8104 49.1304 48.1711 48.7155 49.4011 48.0323C50.6311 47.3491 51.7025 46.4133 52.545 45.2864C53.3874 44.1594 53.9818 42.8668 54.289 41.4938C54.5962 40.1207 54.6092 38.6985 54.3273 37.32C54.3273 37.3178 54.3273 37.3154 54.3273 37.3131C54.2484 36.9319 54.0375 36.5908 53.7316 36.3499C53.4258 36.109 53.0447 35.984 52.6556 35.9966L52.6556 35.997ZM51.184 40.0697C51.0091 41.5986 50.3105 43.0195 49.2068 44.0918C48.1031 45.1641 46.6624 45.8215 45.1291 45.9523C43.5959 46.083 42.0647 45.6794 40.7953 44.8095C39.526 43.9396 38.5968 42.6572 38.1655 41.1801C42.5274 41.9544 47.0162 41.5716 51.184 40.0697Z" fill="white"/>
<path d="M21.8619 37.1343L15.0795 35.4107C14.6547 35.303 14.2046 35.3684 13.8281 35.5925C13.4516 35.8166 13.1794 36.181 13.0715 36.6056C12.9635 37.0303 13.0286 37.4803 13.2524 37.857C13.4763 38.2337 13.8405 38.5062 14.2651 38.6144L21.0475 40.338C21.4722 40.4457 21.9223 40.3802 22.2988 40.1562C22.6754 39.9321 22.9475 39.5677 23.0555 39.143C23.1634 38.7184 23.0983 38.2684 22.8745 37.8917C22.6507 37.515 22.2864 37.2425 21.8618 37.1343H21.8619Z" fill="white"/>
<path d="M20.2531 44.2868L13.265 44.6615C12.8305 44.6888 12.4243 44.8867 12.1347 45.2119C11.8451 45.5371 11.6956 45.9633 11.7186 46.3981C11.7417 46.8329 11.9354 47.2412 12.2577 47.534C12.58 47.8267 13.0049 47.9804 13.4399 47.9616L20.4279 47.5866C20.8625 47.5593 21.2687 47.3617 21.5583 47.0365C21.8479 46.7114 21.9974 46.2852 21.9744 45.8504C21.9513 45.4155 21.7576 45.0072 21.4353 44.7145C21.113 44.4217 20.6881 44.268 20.2531 44.2868Z" fill="white"/>
</svg>
