<svg width="113" height="71" viewBox="0 0 113 71" fill="none" xmlns="http://www.w3.org/2000/svg">
<path d="M72.2005 4.32913C60.5975 8.67753 54.8215 20.6786 58.7938 29.8647C58.9626 30.2551 59.1515 30.6366 59.3598 31.0075C60.0147 32.2023 60.8551 33.2855 61.8498 34.2167C67.5235 39.5691 77.8707 40.0694 86.5821 34.936C101.497 26.1478 111 7.30111 111 7.30111C111 7.30111 89.7585 -2.25742 72.2005 4.32913ZM85.5671 33.2127C83.0103 34.8043 80.1497 35.8452 77.168 36.2689C74.1863 36.6926 71.149 36.4898 68.2501 35.6735C66.3479 35.0768 64.6038 34.0612 63.1459 32.7015C64.6631 31.0082 66.3019 29.4279 68.0493 27.9734C73.3403 23.5446 79.4969 20.268 86.1257 18.3528C86.6418 18.2308 87.0883 17.9088 87.367 17.4576C87.6457 17.0064 87.7337 16.4629 87.6117 15.9468C87.4897 15.4307 87.1676 14.9842 86.7164 14.7055C86.2652 14.4268 85.7217 14.3388 85.2056 14.4608C78.0204 16.4798 71.3454 20.0003 65.6213 24.7897C63.9039 26.2142 62.2852 27.7536 60.7764 29.3973C60.7253 29.2915 60.6778 29.1819 60.6303 29.0724C59.8721 27.207 59.504 25.206 59.5485 23.1929C59.5931 21.1798 60.0495 19.1971 60.8896 17.3671C62.0366 14.7926 63.6918 12.4763 65.7559 10.5571C67.82 8.63788 70.2505 7.15537 72.9016 6.19846C77.0862 4.69916 81.5057 3.96216 85.9504 4.02243C93.5453 4.18066 101.058 5.63395 108.163 8.31973C105.341 13.2523 97.046 26.4472 85.5671 33.2127Z" fill="white"/>
<path d="M112.885 6.63649C112.794 6.38163 112.653 6.14769 112.47 5.94879C112.287 5.74988 112.065 5.59011 111.819 5.4791C110.924 5.07748 89.6203 -4.33862 71.5001 2.45603C68.3415 3.60297 65.4473 5.37667 62.9916 7.67054C60.5358 9.9644 58.5692 12.7311 57.2099 15.8043C56.1555 18.1321 55.5892 20.6512 55.5459 23.2063C55.5026 25.7614 55.9831 28.2983 56.9579 30.6605C57.2589 31.3583 57.6129 32.032 58.0167 32.6758C58.7394 33.8282 59.6138 34.8782 60.6163 35.7975C62.4601 37.4677 64.6417 38.7216 67.013 39.4741C69.2158 40.1796 71.5164 40.532 73.8295 40.5183C78.6801 40.4734 83.4316 39.1403 87.5976 36.6555C102.841 27.6739 112.385 8.99506 112.786 8.20279C112.908 7.9619 112.979 7.69892 112.996 7.42973C113.013 7.16054 112.975 6.8907 112.885 6.63649ZM68.2507 35.6734C66.3485 35.0767 64.6043 34.0611 63.1465 32.7014C62.1596 31.7556 61.3562 30.6353 60.777 29.3972C60.7258 29.2913 60.6784 29.1818 60.6309 29.0722C59.8727 27.2068 59.5045 25.2059 59.5491 23.1928C59.5937 21.1796 60.0501 19.197 60.8901 17.3669C62.0372 14.7924 63.6924 12.4761 65.7565 10.5569C67.8206 8.63777 70.2511 7.15527 72.9021 6.19836C77.0868 4.69906 81.5063 3.96206 85.951 4.02233C93.5459 4.18056 101.058 5.63385 108.164 8.31963C105.342 13.2522 97.0466 26.4471 85.5676 33.2126C83.0109 34.8042 80.1503 35.8451 77.1686 36.2688C74.1869 36.6925 71.1496 36.4897 68.2507 35.6734Z" fill="white"/>
<path d="M86.127 18.3526C79.4981 20.2678 73.3416 23.5444 68.0506 27.9731C66.3032 29.4277 64.6644 31.0079 63.1472 32.7013C62.7018 33.1978 62.2697 33.7029 61.8511 34.2165C61.4239 34.7349 61.015 35.2607 60.617 35.7974C55.082 43.2346 52.0626 52.2454 51.5916 62.7312V62.7495C51.5295 64.115 51.5113 65.5061 51.5368 66.9227C51.5515 67.5543 51.5697 68.1895 51.5989 68.8322C51.6232 69.3548 51.4413 69.8661 51.0923 70.256C50.7434 70.6459 50.2553 70.8833 49.7332 70.9169C49.72 70.9199 49.7065 70.9211 49.693 70.9205H49.5761C49.5639 70.9211 49.5516 70.9199 49.5396 70.9169C49.0365 70.901 48.5578 70.696 48.1991 70.3427C47.8404 69.9894 47.6281 69.5139 47.6046 69.0111C47.5717 68.3064 47.5498 67.6091 47.5425 66.9227C47.517 65.5243 47.5352 64.1588 47.5936 62.8335C47.748 58.8822 48.296 54.9561 49.2294 51.1136C50.84 44.4217 53.8336 38.1411 58.0175 32.6757C58.4593 32.0989 58.9047 31.5439 59.3611 31.0072C59.8248 30.4486 60.2994 29.9119 60.7777 29.3971C62.2865 27.7533 63.9053 26.2139 65.6227 24.7895C71.3467 20.0001 78.0218 16.4796 85.2069 14.4606C85.7231 14.3386 86.2665 14.4266 86.7177 14.7053C87.1689 14.984 87.491 15.4305 87.613 15.9466C87.735 16.4627 87.647 17.0062 87.3683 17.4574C87.0896 17.9086 86.6431 18.2306 86.127 18.3527L86.127 18.3526Z" fill="white"/>
<path d="M32.1198 18.7764C18.4904 13.6649 1.99854 21.0875 1.99854 21.0875C1.99854 21.0875 9.37734 35.7136 20.9549 42.5374C27.5524 46.4221 35.3511 46.152 39.8199 42.2819C40.8613 41.3891 41.7098 40.2934 42.3136 39.0616C42.3902 38.9119 42.4596 38.7586 42.529 38.6016C45.6104 31.4711 41.1269 22.1536 32.1198 18.7764ZM37.5124 34.3189C33.0168 30.5556 27.7722 27.7915 22.1268 26.2099C21.6117 26.0892 21.0696 26.1777 20.6197 26.4562C20.1698 26.7346 19.8487 27.1801 19.7268 27.695C19.605 28.2099 19.6924 28.7521 19.9698 29.2027C20.2473 29.6532 20.6921 29.9753 21.2068 30.0982C26.2964 31.5746 31.0227 34.095 35.0844 37.4989C36.2999 38.5145 37.4464 39.6098 38.5164 40.7776C37.4975 41.6358 36.3186 42.2835 35.0479 42.6835C32.8578 43.2982 30.5636 43.4494 28.3118 43.1275C26.0599 42.8057 23.9 42.0178 21.9698 40.8141C13.4811 35.8122 7.24146 26.2026 4.85366 22.1098C9.53068 20.412 21.4112 16.8961 31.4188 20.6493C33.4207 21.3703 35.2564 22.4884 36.8155 23.9364C38.3746 25.3845 39.625 27.1327 40.4917 29.076C41.6918 31.7085 41.8189 34.705 40.8458 37.4296C39.7961 36.3288 38.683 35.2901 37.5124 34.3189L37.5124 34.3189Z" fill="white"/>
<path d="M44.172 27.5098C43.0925 25.0681 41.5304 22.8699 39.5798 21.0472C37.6291 19.2246 35.3301 17.8151 32.8209 16.9035C18.5818 11.5656 1.88545 18.948 1.18079 19.262C0.93456 19.3736 0.713288 19.5336 0.530138 19.7324C0.346988 19.9312 0.205703 20.1649 0.114688 20.4194C0.024224 20.6737 -0.0133697 20.9438 0.00421061 21.2131C0.0217909 21.4825 0.0941749 21.7454 0.216928 21.9857C0.527263 22.6064 7.99367 37.2216 19.9399 44.2608C23.2445 46.2276 27.0113 47.2833 30.8566 47.3204C32.6992 47.3308 34.5317 47.0486 36.2857 46.4843C38.0257 45.9298 39.6406 45.0405 41.0394 43.8665C42.0845 42.9811 42.9742 41.9273 43.6718 40.7485C43.93 40.3119 44.1605 39.8595 44.3619 39.394C45.1437 37.5051 45.5302 35.4762 45.4975 33.4322C45.4649 31.3883 45.0138 29.3727 44.172 27.5098ZM40.8459 37.4297C40.7984 37.5575 40.7473 37.6853 40.6926 37.8094C40.2039 38.9523 39.4594 39.9678 38.5165 40.7777C37.4976 41.6359 36.3187 42.2837 35.048 42.6836C32.8579 43.2983 30.5637 43.4495 28.3119 43.1277C26.0601 42.8058 23.9001 42.0179 21.9699 40.8142C13.4812 35.8123 7.24156 26.2027 4.85376 22.1099C9.53077 20.4121 21.4113 16.8962 31.4189 20.6494C33.4208 21.3704 35.2565 22.4885 36.8156 23.9365C38.3747 25.3846 39.6251 27.1328 40.4918 29.0761C41.6919 31.7086 41.819 34.7051 40.8459 37.4297Z" fill="white"/>
<path d="M51.7155 66.9227C51.7118 67.6091 51.6936 68.3027 51.6607 69.011C51.6388 69.5132 51.428 69.9886 51.0705 70.342C50.7131 70.6954 50.2353 70.9007 49.7329 70.9169C49.7198 70.9199 49.7062 70.9211 49.6928 70.9205H49.5759C49.5577 70.9205 49.5394 70.9169 49.5212 70.9169C49.0017 70.8785 48.5176 70.6394 48.1714 70.2503C47.8252 69.8612 47.6441 69.3525 47.6664 68.8322C47.6956 68.1896 47.7139 67.5506 47.7139 66.9227C47.7321 65.528 47.692 64.1697 47.5934 62.8408V62.8335C47.2404 56.0197 44.9685 49.4444 41.0397 43.8662C40.6527 43.3258 40.2462 42.7977 39.8203 42.2816C39.4077 41.7669 38.9732 41.2654 38.5168 40.7774C37.4468 39.6096 36.3003 38.5143 35.0849 37.4987C31.0232 34.0948 26.2969 31.5744 21.2072 30.0981C20.6926 29.9751 20.2477 29.653 19.9703 29.2025C19.6928 28.7519 19.6054 28.2097 19.7273 27.6948C19.8491 27.1799 20.1702 26.7344 20.6202 26.456C21.0701 26.1775 21.6121 26.089 22.1273 26.2097C27.7727 27.7913 33.0172 30.5554 37.5128 34.3187C38.6835 35.2899 39.7965 36.3286 40.8462 37.4294C41.3391 37.9442 41.8284 38.4882 42.314 39.0614C42.774 39.5981 43.2267 40.1604 43.6722 40.7482C46.0471 43.8953 47.9215 47.3904 49.2291 51.1099V51.1135C50.5367 54.8619 51.3313 58.7698 51.5913 62.7312V62.7567C51.6862 64.0967 51.7301 65.4841 51.7155 66.9227Z" fill="white"/>
</svg>
