<svg width="83" height="79" viewBox="0 0 83 79" fill="none" xmlns="http://www.w3.org/2000/svg">
<path d="M34.4862 68.6943H33.7909V60.768C33.7909 60.629 33.7909 60.629 33.7909 60.4899C32.4003 53.2589 25.7256 50.895 21.832 50.0606C19.1899 49.5044 16.5478 48.8091 13.7667 47.8357C12.3761 47.2795 10.8465 47.6967 9.73401 48.6701L8.62155 47.8357C8.48249 47.6967 8.34343 47.5576 8.34343 47.4185C8.20438 47.2795 8.20438 47.0014 8.20438 46.8623V42.1344C8.20438 41.0219 7.78721 40.0485 6.95286 39.2142C6.11852 38.5189 5.14512 37.9626 4.03266 37.9626C1.80774 37.9626 0 39.7704 0 41.9953V47.4185C0 49.6435 0.556229 51.8684 1.66869 53.8152C6.53569 62.5758 14.601 66.4694 17.7993 67.5818C18.0774 67.7209 18.2165 67.86 18.2165 68.1381V68.4162H17.7993C15.9916 68.4162 14.462 69.9458 14.462 71.7536V75.23C14.462 76.8987 15.7135 78.1502 17.3822 78.1502H35.0424C36.5721 78.1502 37.9626 76.7596 37.9626 75.23V71.7536C37.8236 70.2239 36.2939 68.6943 34.4862 68.6943ZM18.9118 65.3569C16.5478 64.5226 8.76061 60.9071 4.17172 52.7027C3.33737 51.1731 2.9202 49.5044 2.9202 47.6967V42.2734C2.9202 41.5781 3.47643 41.0219 4.17172 41.0219C4.44983 41.0219 4.867 41.161 5.00606 41.4391C5.14512 41.5781 5.42323 41.8562 5.42323 42.4125V47.1404C5.42323 47.6967 5.56229 48.2529 5.8404 48.8091C6.11852 49.3653 6.53569 49.7825 6.95286 50.1997L8.48249 51.3121C8.48249 51.8684 8.48249 52.4246 8.62155 52.8418C8.89966 53.9542 9.73401 54.9276 10.7074 55.3448L19.1899 59.5165C19.8852 59.7946 20.7195 59.5165 20.9976 58.8212C21.2758 58.1259 20.9976 57.2916 20.3024 57.0135L11.8199 52.8418C11.5418 52.7027 11.2636 52.4246 11.1246 52.0074C10.9855 51.5903 11.1246 51.3121 11.2636 50.895C11.5418 50.4778 12.237 50.1997 12.7933 50.4778C15.7135 51.4512 18.4946 52.2855 21.2758 52.8418C24.4741 53.5371 29.8973 55.3448 31.0098 60.9071V68.6943H20.9976V68.4162C20.9976 67.0256 20.1633 65.7741 18.9118 65.3569ZM35.0424 75.5081C35.0424 75.6472 35.0424 75.6472 35.0424 75.5081L17.3822 75.6472C17.2431 75.6472 17.2431 75.5081 17.2431 75.5081V72.0317C17.2431 71.7536 17.5212 71.4754 17.7993 71.4754H34.4862C34.7643 71.4754 35.0424 71.7536 35.0424 72.0317V75.5081Z" fill="white"/>
<path d="M78.2893 38.1017C77.1768 38.1017 76.2034 38.5189 75.5082 39.2141C74.8129 39.9094 74.2566 41.0219 74.2566 42.1343V46.8623C74.2566 47.0013 74.2566 47.1404 74.1176 47.4185C74.1176 47.5576 73.9785 47.6966 73.8395 47.8357L72.727 48.67C71.6146 47.6966 70.0849 47.4185 68.6944 47.8357C65.9132 48.8091 63.2711 49.5044 60.629 50.0606C56.7354 50.8949 50.0607 53.2589 48.6701 60.4899C48.6701 60.629 48.6701 60.629 48.6701 60.768V68.6943H47.9748C46.1671 68.6943 44.6375 70.2239 44.6375 72.0317V75.5081C44.6375 77.1768 45.889 78.4283 47.5577 78.4283H65.2179C66.7476 78.4283 68.1381 77.0377 68.1381 75.5081V72.0317C68.1381 70.2239 66.6085 68.6943 64.8008 68.6943H64.3836V68.4162C64.3836 68.1381 64.5226 67.999 64.8008 67.8599C67.9991 66.6084 76.0644 62.7148 80.9314 54.0933C82.0438 52.1465 82.6001 50.0606 82.6001 47.6966V42.2734C82.322 39.9094 80.5142 38.1017 78.2893 38.1017ZM65.0789 72.0317V75.5081L64.9398 75.6471H47.4186C47.2795 75.6471 47.2795 75.5081 47.2795 75.5081V72.0317C47.2795 71.7535 47.5577 71.4754 47.8358 71.4754H64.5226C64.8008 71.4754 65.0789 71.7535 65.0789 72.0317ZM79.5408 47.6966C79.5408 49.5044 79.1236 51.1731 78.2893 52.7027C73.8395 60.629 66.4694 64.1054 63.4102 65.3569C62.1587 65.9131 61.3243 67.1646 61.3243 68.4162V68.6943H51.3122V60.9071C52.4247 55.3448 57.8479 53.537 61.0462 52.8418C63.8273 52.2855 66.6085 51.4512 69.5287 50.4778C70.0849 50.3387 70.6412 50.4778 71.0583 50.895C71.3364 51.1731 71.3364 51.5902 71.1974 52.0074C71.0583 52.4246 70.9193 52.7027 70.5021 52.8418L62.0196 57.0135C61.3243 57.2916 61.0462 58.1259 61.3243 58.8212C61.6024 59.5165 62.4368 59.7946 63.1321 59.5165L71.6146 55.3448C72.727 54.7886 73.4223 53.9542 73.7004 52.8418C73.8395 52.2855 73.8395 51.7293 73.8395 51.1731L75.3691 50.0606C75.7863 49.6434 76.2034 49.2263 76.4816 48.67C76.7597 48.1138 76.8987 47.5576 76.8987 47.0013V42.2734C76.8987 41.9953 77.0378 41.5781 77.3159 41.4391C77.455 41.3 77.7331 41.0219 78.2893 41.0219C78.9846 41.0219 79.5408 41.5781 79.5408 42.2734V47.6966Z" fill="white"/>
<path d="M25.8646 17.5212C26.0037 17.5212 26.1427 17.5212 26.2818 17.5212V21.1367C26.2818 22.3882 27.3942 23.5007 28.6458 23.5007H54.3713C55.7619 23.5007 56.7353 22.3882 56.7353 21.1367V13.9057C56.7353 12.6542 55.6229 11.5418 54.3713 11.5418H34.208C34.4862 10.7074 34.6252 9.73401 34.6252 8.76061C34.6252 3.8936 30.7316 0 25.8646 0C20.9976 0 17.104 3.8936 17.104 8.76061C17.104 13.6276 20.9976 17.5212 25.8646 17.5212ZM54.0932 20.7195H29.0629V16.965C30.4535 16.4088 31.705 15.5744 32.6784 14.3229H54.0932V20.7195ZM25.8646 2.78115C29.202 2.78115 31.8441 5.42323 31.8441 8.76061C31.8441 10.0121 31.4269 11.1246 30.8707 12.098C30.0363 13.3495 28.7848 14.1838 27.3942 14.601C26.9771 14.7401 26.5599 14.7401 26.0037 14.7401C22.6663 14.7401 20.0242 12.098 20.0242 8.76061C19.8851 5.42323 22.5272 2.78115 25.8646 2.78115Z" fill="white"/>
<path d="M23.9179 11.6808C24.196 11.9589 24.4742 12.098 24.8913 12.098C25.3085 12.098 25.5866 11.9589 25.8647 11.6808L29.7583 7.78719C30.3146 7.23096 30.3146 6.39662 29.7583 5.84039C29.2021 5.28416 28.3678 5.28416 27.8115 5.84039L24.8913 8.76059L23.9179 7.78719C23.3617 7.23096 22.5274 7.23096 21.9711 7.78719C21.4149 8.34342 21.4149 9.17776 21.9711 9.73399L23.9179 11.6808Z" fill="white"/>
<path d="M51.0339 19.0508H51.5901C52.4245 19.0508 52.9807 18.4946 52.9807 17.6602C52.9807 16.8259 52.4245 16.2697 51.5901 16.2697H51.0339C50.1995 16.2697 49.6433 16.8259 49.6433 17.6602C49.6433 18.4946 50.1995 19.0508 51.0339 19.0508Z" fill="white"/>
<path d="M30.4534 17.6602C30.4534 18.4946 31.0096 19.0508 31.8439 19.0508H32.9564C33.7907 19.0508 34.347 18.4946 34.347 17.6602C34.347 16.8259 33.7907 16.2697 32.9564 16.2697H31.8439C31.1487 16.2697 30.4534 16.8259 30.4534 17.6602Z" fill="white"/>
<path d="M36.7109 19.0508H37.8233C38.6577 19.0508 39.2139 18.4946 39.2139 17.6602C39.2139 16.8259 38.6577 16.2697 37.8233 16.2697H36.7109C35.8765 16.2697 35.3203 16.8259 35.3203 17.6602C35.3203 18.4946 35.8765 19.0508 36.7109 19.0508Z" fill="white"/>
<path d="M50.895 32.4004H51.4512C52.2855 32.4004 52.8418 31.8442 52.8418 31.0098C52.8418 30.1755 52.2855 29.6193 51.4512 29.6193H50.895C50.0606 29.6193 49.5044 30.1755 49.5044 31.0098C49.5044 31.8442 50.0606 32.4004 50.895 32.4004Z" fill="white"/>
<path d="M31.8439 32.4004H32.9564C33.7907 32.4004 34.347 31.8442 34.347 31.0098C34.347 30.1755 33.7907 29.6193 32.9564 29.6193H31.8439C31.0096 29.6193 30.4534 30.1755 30.4534 31.0098C30.4534 31.8442 31.0096 32.4004 31.8439 32.4004Z" fill="white"/>
<path d="M36.5722 32.4004H37.6847C38.519 32.4004 39.0752 31.8442 39.0752 31.0098C39.0752 30.1755 38.519 29.6193 37.6847 29.6193H36.5722C35.7379 29.6193 35.1816 30.1755 35.1816 31.0098C35.1816 31.8442 35.7379 32.4004 36.5722 32.4004Z" fill="white"/>
<path d="M50.7558 45.8889H51.312C52.1464 45.8889 52.7026 45.3327 52.7026 44.4984C52.7026 43.664 52.1464 43.1078 51.312 43.1078H50.7558C49.9215 43.1078 49.3652 43.664 49.3652 44.4984C49.3652 45.3327 50.0605 45.8889 50.7558 45.8889Z" fill="white"/>
<path d="M31.705 45.8889H32.8175C33.6518 45.8889 34.2081 45.3327 34.2081 44.4984C34.2081 43.664 33.6518 43.1078 32.8175 43.1078H31.705C30.8707 43.1078 30.3145 43.664 30.3145 44.4984C30.3145 45.3327 30.8707 45.8889 31.705 45.8889Z" fill="white"/>
<path d="M36.4331 45.8889H37.5455C38.3799 45.8889 38.9361 45.3327 38.9361 44.4984C38.9361 43.664 38.3799 43.1078 37.5455 43.1078H36.4331C35.5987 43.1078 35.0425 43.664 35.0425 44.4984C35.0425 45.3327 35.7378 45.8889 36.4331 45.8889Z" fill="white"/>
<path d="M56.8743 27.1162C56.8743 25.8647 55.7619 24.7522 54.5104 24.7522H28.6457C27.3942 24.7522 26.2817 25.8647 26.2817 27.1162V34.3471C26.2817 35.5987 27.3942 36.7111 28.6457 36.7111H54.3713C55.6228 36.7111 56.7353 35.5987 56.7353 34.3471V27.1162H56.8743ZM54.0932 34.069H29.0629V27.5333H54.0932V34.069Z" fill="white"/>
<path d="M54.5104 37.9626H28.6457C27.3942 37.9626 26.2817 39.0751 26.2817 40.3266V47.5576C26.2817 48.8091 27.3942 49.9216 28.6457 49.9216H54.3713C55.6228 49.9216 56.7353 48.8091 56.7353 47.5576V40.3266C56.8743 39.0751 55.7619 37.9626 54.5104 37.9626ZM54.0932 47.2795H29.0629V40.7438H54.0932V47.2795Z" fill="white"/>
</svg>
