<svg width="45" height="73" viewBox="0 0 45 73" fill="none" xmlns="http://www.w3.org/2000/svg">
<path d="M22.1336 0H22.0487C7.84408 0 2.39756 8.67318 0.408188 13.865C0.0501717 14.797 -0.0750796 15.8023 0.0432938 16.7936C0.161667 17.785 0.520093 18.7326 1.08749 19.5541C1.66834 20.3925 2.44456 21.0769 3.3491 21.5482C4.25365 22.0195 5.25932 22.2635 6.27927 22.2592C7.59162 22.2812 8.8757 21.8769 9.93871 21.1069C11.0017 20.337 11.7863 19.2431 12.1746 17.9893C13.7152 13.1371 16.9176 10.7839 21.988 10.7839C28.8053 10.7839 31.2314 15.636 31.2314 19.7482C31.2314 23.8604 30.1639 27.3054 24.8508 32.0605C19.9987 36.4274 16.8569 40.6851 15.4255 45.0884C15.1197 46.012 15.0404 46.9956 15.1945 47.9562C15.3487 48.9168 15.7316 49.8262 16.311 50.6077C16.8995 51.4177 17.671 52.0772 18.5627 52.5325C19.4544 52.9879 20.441 53.2261 21.4422 53.2279H21.8182C23.2273 53.2181 24.592 52.734 25.6924 51.8538C26.7927 50.9735 27.5645 49.7483 27.8834 48.3757C28.5991 45.4887 30.3822 42.9171 33.8151 39.7753C41.5907 32.7034 44.2108 27.645 44.2108 19.9665C44.1138 10.0682 37.3086 0.036391 22.1336 0ZM32.0805 37.9922C28.2716 41.4857 26.2822 44.4091 25.4331 47.8056C25.2431 48.6371 24.7828 49.3821 24.1244 49.9242C23.466 50.4664 22.6464 50.775 21.794 50.8018H21.4179C20.7976 50.8 20.1866 50.6518 19.6343 50.3694C19.0821 50.087 18.6043 49.6782 18.2398 49.1763C17.8897 48.7063 17.6584 48.1586 17.5655 47.5799C17.4726 47.0012 17.5208 46.4087 17.706 45.8526C19.004 41.8618 21.8667 37.9437 26.4399 33.8679C32.408 28.5184 33.6332 24.3577 33.6332 19.7482C33.6332 14.0833 29.9941 8.3578 21.9638 8.3578C15.7894 8.3578 11.7137 11.354 9.83345 17.2615C9.60564 17.9291 9.19633 18.52 8.65145 18.968C8.10656 19.416 7.44764 19.7034 6.74857 19.7979C6.04951 19.8923 5.33795 19.7902 4.6937 19.5029C4.04944 19.2155 3.49797 18.7544 3.10112 18.1712C2.74304 17.681 2.51329 17.109 2.43278 16.5073C2.35227 15.9056 2.42356 15.2933 2.64017 14.7262C4.78724 9.10988 9.91837 2.42607 22.0487 2.42607H22.1336C36.5687 2.42607 41.6998 11.8998 41.6998 19.9786C41.6877 27.0021 39.3465 31.3812 32.0805 37.9922Z" fill="white"/>
<path d="M21.4782 56.9397C19.926 56.9397 18.4086 57.4 17.1179 58.2624C15.8273 59.1248 14.8213 60.3505 14.2273 61.7846C13.6333 63.2187 13.4779 64.7967 13.7807 66.3191C14.0835 67.8416 14.831 69.24 15.9286 70.3376C17.0262 71.4352 18.4247 72.1827 19.9471 72.4855C21.4695 72.7884 23.0475 72.6329 24.4816 72.0389C25.9157 71.4449 27.1415 70.439 28.0038 69.1483C28.8662 67.8577 29.3265 66.3403 29.3265 64.788C29.3233 62.7075 28.4954 60.7131 27.0243 59.242C25.5531 57.7708 23.5587 56.9429 21.4782 56.9397ZM21.4782 70.2103C20.4058 70.2103 19.3575 69.8923 18.4658 69.2965C17.5741 68.7007 16.8791 67.8538 16.4687 66.863C16.0583 65.8722 15.9509 64.782 16.1601 63.7302C16.3694 62.6784 16.8858 61.7122 17.6441 60.9539C18.4024 60.1956 19.3686 59.6792 20.4204 59.47C21.4722 59.2607 22.5624 59.3681 23.5532 59.7785C24.544 60.1889 25.3908 60.8839 25.9867 61.7756C26.5825 62.6673 26.9005 63.7156 26.9005 64.788C26.9005 66.2261 26.3292 67.6053 25.3123 68.6221C24.2955 69.639 22.9163 70.2103 21.4782 70.2103Z" fill="white"/>
</svg>
