<svg width="69" height="72" viewBox="0 0 69 72" fill="none" xmlns="http://www.w3.org/2000/svg">
<path d="M56.6735 11.9005V3.23826C56.6735 2.80884 56.503 2.39701 56.1993 2.09337C55.8957 1.78973 55.4838 1.61914 55.0544 1.61914C54.625 1.61914 54.2132 1.78973 53.9095 2.09337C53.6059 2.39701 53.4353 2.80884 53.4353 3.23826V22.6676C53.4353 23.097 53.6059 23.5089 53.9095 23.8125C54.2132 24.1162 54.625 24.2867 55.0544 24.2867C55.4838 24.2867 55.8957 24.1162 56.1993 23.8125C56.503 23.5089 56.6735 23.097 56.6735 22.6676V16.4502C61.6358 21.8596 64.5002 28.8652 64.7494 36.2016C64.9986 43.5381 62.6162 50.7219 58.0324 56.4555C53.4487 62.1892 46.9657 66.0948 39.7544 67.4669C32.5431 68.8391 25.0788 67.5874 18.7096 63.9378C12.3404 60.2883 7.48613 54.4815 5.02354 47.5662C2.56094 40.6509 2.65232 33.0829 5.28117 26.2291C7.91003 19.3752 12.9031 13.6874 19.3585 10.1927C25.814 6.69796 33.3063 5.62682 40.4824 7.1727V19.4294C40.4824 19.8588 40.653 20.2706 40.9566 20.5743C41.2603 20.8779 41.6721 21.0485 42.1015 21.0485C42.5309 21.0485 42.9428 20.8779 43.2464 20.5743C43.55 20.2706 43.7206 19.8588 43.7206 19.4294V3.23826C43.7206 2.80884 43.55 2.39701 43.2464 2.09337C42.9428 1.78973 42.5309 1.61914 42.1015 1.61914C41.6721 1.61914 41.2603 1.78973 40.9566 2.09337C40.653 2.39701 40.4824 2.80884 40.4824 3.23826V3.85352C38.3477 3.44529 36.1793 3.23929 34.0059 3.23826C26.0583 3.23721 18.3615 6.02027 12.2524 11.104C6.14337 16.1877 2.00817 23.2508 0.565185 31.0663C-0.877801 38.8818 0.462606 46.9559 4.35355 53.8859C8.2445 60.8159 14.4401 66.1639 21.8641 69.001C29.2881 71.838 37.4714 71.9847 44.9923 69.4157C52.5132 66.8466 58.8966 61.7242 63.0335 54.9381C67.1704 48.1521 68.7994 40.1312 67.6376 32.269C66.4757 24.4068 62.5964 17.2 56.6735 11.9005Z" fill="white"/>
<path d="M21.8627 32.3823C24.0971 32.3823 25.9105 35.0376 25.9105 37.2396C25.9105 37.669 26.081 38.0809 26.3847 38.3845C26.6883 38.6881 27.1002 38.8587 27.5296 38.8587C27.959 38.8587 28.3708 38.6881 28.6745 38.3845C28.9781 38.0809 29.1487 37.669 29.1487 37.2396C29.1487 33.4185 26.04 29.144 21.8627 29.144C17.6854 29.144 14.5767 33.4185 14.5767 37.2396C14.5767 37.669 14.7472 38.0809 15.0509 38.3845C15.3545 38.6881 15.7664 38.8587 16.1958 38.8587C16.6252 38.8587 17.037 38.6881 17.3407 38.3845C17.6443 38.0809 17.8149 37.669 17.8149 37.2396C17.8149 35.0376 19.6283 32.3823 21.8627 32.3823Z" fill="white"/>
<path d="M38.8638 37.2396C38.8638 37.669 39.0344 38.0809 39.338 38.3845C39.6416 38.6881 40.0535 38.8587 40.4829 38.8587C40.9123 38.8587 41.3241 38.6881 41.6278 38.3845C41.9314 38.0809 42.102 37.669 42.102 37.2396C42.102 35.0376 43.9154 32.3823 46.1498 32.3823C48.3842 32.3823 50.1976 35.0376 50.1976 37.2396C50.1976 37.669 50.3682 38.0809 50.6718 38.3845C50.9754 38.6881 51.3873 38.8587 51.8167 38.8587C52.2461 38.8587 52.6579 38.6881 52.9616 38.3845C53.2652 38.0809 53.4358 37.669 53.4358 37.2396C53.4358 33.4185 50.3271 29.144 46.1498 29.144C41.9725 29.144 38.8638 33.4185 38.8638 37.2396Z" fill="white"/>
<path d="M34.0058 58.2882C37.4874 58.3607 40.9073 57.3623 43.8031 55.4279C46.6988 53.4935 48.9307 50.7166 50.1969 47.4725C50.3343 47.0645 50.304 46.6187 50.1127 46.2331C49.9214 45.8475 49.5848 45.5536 49.1769 45.4162C48.7689 45.2788 48.3231 45.3091 47.9375 45.5004C47.5518 45.6917 47.258 46.0283 47.1206 46.4363C46.1041 49.0592 44.2938 51.2992 41.9426 52.8434C39.5914 54.3877 36.8166 55.1591 34.0058 55.0499C31.222 55.125 28.4832 54.3376 26.1644 52.7956C23.8456 51.2536 22.0602 49.0324 21.0528 46.4363C20.9154 46.0283 20.6216 45.6917 20.236 45.5004C19.8503 45.3091 19.4045 45.2788 18.9966 45.4162C18.5886 45.5536 18.252 45.8475 18.0607 46.2331C17.8694 46.6187 17.8391 47.0645 17.9765 47.4725C19.2331 50.6903 21.4401 53.449 24.3037 55.3812C27.1672 57.3134 30.5515 58.3274 34.0058 58.2882Z" fill="white"/>
<path d="M48.5781 21.0485C49.0075 21.0485 49.4193 20.8779 49.723 20.5743C50.0266 20.2706 50.1972 19.8588 50.1972 19.4294V1.61911C50.1972 1.1897 50.0266 0.77787 49.723 0.474227C49.4193 0.170585 49.0075 0 48.5781 0C48.1487 0 47.7369 0.170585 47.4332 0.474227C47.1296 0.77787 46.959 1.1897 46.959 1.61911V19.4294C46.959 19.8588 47.1296 20.2706 47.4332 20.5743C47.7369 20.8779 48.1487 21.0485 48.5781 21.0485Z" fill="white"/>
</svg>
