<svg width="105" height="102" viewBox="0 0 105 102" fill="none" xmlns="http://www.w3.org/2000/svg">
<path d="M80.3519 73.6383C91.0355 65.0229 100.999 55.3442 102.009 52.1632C102.285 51.3747 102.388 50.5361 102.311 49.7043C102.914 48.689 103.123 47.4875 102.898 46.3283C102.771 45.8477 102.537 45.4018 102.214 45.0237C101.891 44.6457 101.488 44.3451 101.033 44.1442C98.5192 42.9287 92.9806 42.2556 88.0047 45.3881C85.94 46.6976 83.8585 48.2189 81.9415 49.6842C81.8861 49.5982 81.8259 49.5155 81.7611 49.4365C80.9668 48.4929 79.6218 48.1167 77.7601 48.2792C75.4399 48.509 71.3817 51.2251 65.9069 55.0315C64.2591 56.2461 62.5448 57.3677 60.7719 58.3911C59.5484 58.3631 58.363 58.3645 57.0522 58.3789C55.0645 58.3931 52.8189 58.4068 49.8255 58.2991C48.7586 58.0368 47.7263 57.6502 46.7496 57.1473C39.6511 53.8527 31.9891 51.943 24.1747 51.5207C12.0293 50.6999 7.15046 53.5516 6.94673 53.6746C6.61673 53.8906 6.38336 54.2262 6.2957 54.6108C6.20804 54.9953 6.27292 55.3989 6.4767 55.7366C6.68049 56.0743 7.00728 56.3198 7.38837 56.4215C7.76946 56.5232 8.17513 56.4732 8.52007 56.2819C8.52007 56.2819 12.9729 53.8231 23.9914 54.5928C31.4398 55.0038 38.7417 56.8301 45.5065 59.974C47.3789 60.8066 48.616 61.3551 49.7167 61.3889C52.8018 61.488 55.0883 61.4723 57.1002 61.4584C60.3809 61.3678 63.6639 61.5192 66.9223 61.9114C72.7304 62.6212 76.6821 64.5271 78.0539 67.2743C78.3967 67.9686 78.5658 68.7357 78.5467 69.5097C78.5277 70.2837 78.3211 71.0415 77.9446 71.7181L76.8463 72.5637C74.5496 73.2852 69.094 72.3022 65.9153 71.7274C63.7426 71.2458 61.5285 70.9745 59.3037 70.9172C52.7609 71.3298 46.2837 72.4646 39.9903 74.3009C39.604 74.4197 39.2807 74.687 39.0915 75.0441C38.9023 75.4012 38.8627 75.8188 38.9815 76.2051C39.1002 76.5914 39.3675 76.9147 39.7246 77.1039C40.0817 77.2931 40.4994 77.3327 40.8856 77.2139C46.9392 75.462 53.1647 74.3708 59.4533 73.9593C61.4499 74.0522 63.4347 74.3176 65.3856 74.7524C67.8742 75.2015 70.3866 75.6749 72.6641 75.8253C65.4464 81.2459 58.6874 85.503 55.3737 85.8086C48.811 86.4661 20.1887 76.0651 9.72748 71.9575C9.3505 71.8112 8.93084 71.8206 8.56081 71.9837C8.19078 72.1468 7.9007 72.4502 7.75436 72.8271C7.60803 73.2041 7.61745 73.6238 7.78053 73.9938C7.94362 74.3638 8.24702 74.6539 8.62399 74.8003C9.344 75.0491 17.3297 78.1801 26.6539 81.403C37.8502 85.273 50.9695 89.3159 55.6775 88.8475C60.0864 88.4047 69.2378 82.4032 78.2495 75.3136C79.1109 74.9935 79.8475 74.4065 80.3519 73.6383ZM67.6378 57.5562C70.8935 55.2961 76.3464 51.5064 78.0589 51.3326C78.5231 51.2306 79.0067 51.2636 79.4528 51.4275C79.4063 51.3879 79.3739 51.3343 79.3605 51.2747C79.3653 51.2496 79.3737 51.2254 79.3854 51.2027L79.8102 51.3495C78.5054 52.3494 77.2712 53.285 76.2299 53.989C74.6737 55.0632 69.458 58.0967 67.9109 59.0047L67.3047 58.9161L65.9435 58.7035L67.6378 57.5562ZM72.3412 59.8993C74.4292 58.6623 76.8981 57.1862 77.9322 56.4797C79.2066 55.6144 80.6888 54.4743 82.2632 53.2775C84.5326 51.539 87.1081 49.5678 89.624 47.979C93.5203 45.5212 97.871 45.9933 99.6728 46.8901L99.7736 46.925C97.9712 46.5196 95.3427 47.1748 91.9195 48.8933C89.4055 50.1603 87.0583 51.7343 84.9317 53.5792C82.9117 55.2024 80.1624 57.4198 75.0673 60.8738C74.182 60.487 73.2711 60.1614 72.3412 59.8993ZM80.7458 65.8995C80.0757 64.6037 79.1202 63.4769 77.9513 62.6041C82.4036 59.5406 84.939 57.4991 86.8275 55.9997C88.7862 54.2903 90.9502 52.8315 93.2695 51.6571C97.3565 49.6038 99.0165 49.8149 99.2196 49.9737C99.274 50.3997 99.2135 50.8324 99.0443 51.227C98.2881 53.6014 90.4823 61.2367 81.5143 68.7364C81.4521 67.7568 81.2035 66.7982 80.7817 65.9119L80.7458 65.8995Z" fill="white"/>
<circle cx="26.1607" cy="26.1105" r="7.15764" stroke="white" stroke-width="3"/>
<circle cx="51.6779" cy="8.79533" r="7.15764" stroke="white" stroke-width="3"/>
<circle cx="74.4612" cy="26.1105" r="7.15764" stroke="white" stroke-width="3"/>
</svg>
