<svg width="16" height="28" viewBox="0 0 16 28" fill="none" xmlns="http://www.w3.org/2000/svg">
<path d="M3 28C2.20435 28 1.44129 27.7893 0.87868 27.4142C0.316071 27.0391 0 26.5304 0 26V2C0 1.46957 0.316071 0.96086 0.87868 0.585787C1.44129 0.210714 2.20435 0 3 0C3.79565 0 4.55871 0.210714 5.12132 0.585787C5.68393 0.96086 6 1.46957 6 2V26C6 26.5304 5.68393 27.0391 5.12132 27.4142C4.55871 27.7893 3.79565 28 3 28V28Z" fill="#FFC700"/>
<path d="M13 28C12.2044 28 11.4413 27.7893 10.8787 27.4142C10.3161 27.0391 10 26.5304 10 26V2C10 1.46957 10.3161 0.96086 10.8787 0.585787C11.4413 0.210714 12.2044 0 13 0C13.7956 0 14.5587 0.210714 15.1213 0.585787C15.6839 0.96086 16 1.46957 16 2V26C16 26.5304 15.6839 27.0391 15.1213 27.4142C14.5587 27.7893 13.7956 28 13 28V28Z" fill="#FFC700"/>
</svg>
