<svg width="71" height="87" viewBox="0 0 71 87" fill="none" xmlns="http://www.w3.org/2000/svg">
<path d="M0.569125 32.8811C0.276545 33.3723 0.0915444 33.92 0.026352 34.488C-0.0388403 35.056 0.0172602 35.6314 0.190945 36.1761L3.08877 45.2574C3.38865 46.1975 4.0223 46.9952 4.87011 47.5001C5.71792 48.005 6.72123 48.1821 7.69065 47.9979L39.8459 41.9035C39.8883 41.8985 39.9261 41.8771 39.9675 41.8682C40 41.8604 40.0326 41.8632 40.065 41.8529C40.0976 41.8425 40.126 41.8256 40.1572 41.813C40.1938 41.7991 40.2341 41.7973 40.2695 41.7803L67.7164 28.5941C68.592 28.1695 69.2858 27.4442 69.6712 26.5506C70.0566 25.657 70.1079 24.6547 69.8158 23.7264L66.9213 14.6572C66.6045 13.6615 65.9135 12.8277 64.9938 12.3316C64.0742 11.8355 62.9978 11.716 61.9918 11.9982L55.8349 12.8579C56.3279 13.1869 57.1752 13.786 57.1848 13.7932C58.4613 14.6933 59.2115 15.2254 59.5692 16.0736L62.4878 14.6713C62.662 14.5913 62.851 14.5488 63.0427 14.5465C63.2343 14.5442 63.4243 14.5822 63.6004 14.658C63.7764 14.7338 63.9345 14.8458 64.0645 14.9867C64.1945 15.1275 64.2935 15.2941 64.355 15.4757L67.2495 24.5442C67.3469 24.8537 67.3298 25.1879 67.2013 25.4858C67.0728 25.7837 66.8416 26.0256 66.5497 26.1672L40.4714 38.6959L36.7506 27.0365C38.3252 26.28 41.5447 24.7333 45.1871 22.9833C43.9173 22.3671 42.5228 22.0512 41.1114 22.06C41.0267 22.0627 40.9406 22.0718 40.8554 22.0771L34.7146 25.0274L25.5069 26.7716C24.6216 27.1142 23.7771 27.5538 22.9886 28.0824C22.1344 28.7039 21.412 29.4888 20.8632 30.3914L34.1882 27.8672L37.9104 39.531L7.18947 45.3527C6.86626 45.414 6.5318 45.3549 6.24916 45.1866C5.96651 45.0182 5.75521 44.7523 5.6551 44.439L2.75727 35.358C2.69826 35.1765 2.67899 34.9844 2.70078 34.7948C2.72258 34.6053 2.78491 34.4226 2.88356 34.2592C2.98158 34.096 3.11288 33.9552 3.26893 33.8461C3.42497 33.7369 3.60225 33.6619 3.78922 33.6258L4.59348 33.4735C4.68025 32.6752 4.85612 31.8891 5.11778 31.1299C5.3453 30.3507 5.47925 29.9091 5.56018 29.6523L2.48491 31.2223C1.68505 31.5556 1.01346 32.1371 0.569125 32.8811Z" fill="white"/>
<path d="M25.8745 14.1801C25.6048 14.2713 25.3441 14.3874 25.096 14.5271C24.7798 14.0873 24.4704 13.6675 24.1698 13.2825C22.5865 11.2167 20.4995 9.59187 18.1085 8.56363C15.6099 7.56709 12.3056 7.50859 10.5568 9.62463C10.1386 10.1151 9.92246 10.7461 9.95212 11.39L5.47219 24.0601C5.39155 24.2882 5.37392 24.5338 5.42114 24.7711C5.46837 25.0084 5.57872 25.2285 5.74055 25.4083C6.62135 26.2705 7.67775 26.9325 8.83769 27.3493C8.29679 28.16 7.84806 29.0286 7.49982 29.9389C7.19131 30.8108 6.92765 31.6978 6.70986 32.5966C6.59475 32.8529 6.53783 33.1316 6.5432 33.4125C6.54857 33.6934 6.61609 33.9697 6.74092 34.2215C6.85179 34.3977 7.0019 34.546 7.17953 34.6547C7.35717 34.7633 7.55752 34.8295 7.76494 34.8479C9.75297 35.0373 11.6969 35.5492 13.5204 36.3635C13.8895 36.5185 14.2883 36.5901 14.6883 36.5732C15.0883 36.5563 15.4796 36.4513 15.8343 36.2657C16.189 36.0801 16.4984 35.8184 16.7403 35.4994C16.9822 35.1804 17.1507 34.812 17.2338 34.4203C17.4811 33.2994 17.8334 32.2042 18.286 31.1493C19.0325 29.3293 20.2625 27.7481 21.8429 26.5768C23.4707 25.5463 25.2292 24.7384 27.0715 24.1749L27.1655 24.1411C27.7479 24.4463 28.3963 24.6039 29.0538 24.6002C30.4432 24.6002 31.8108 23.93 33.1098 23.4977C33.6492 23.3263 34.1482 23.0471 34.5766 22.6772C35.0049 22.3072 35.3537 21.8541 35.6017 21.3453C37.3582 20.7229 39.1894 20.3362 41.0475 20.1952C44.1967 20.0954 47.4414 21.6797 49.8013 23.6834C50.1096 23.9346 50.469 24.1154 50.8544 24.2132C51.2399 24.311 51.642 24.3234 52.0328 24.2495C52.4235 24.1757 52.7934 24.0173 53.1165 23.7855C53.4397 23.5537 53.7082 23.2542 53.9035 22.9077C54.814 21.1949 56.0079 19.6487 57.4347 18.3345C58.8238 17.0701 56.9242 15.923 56.0317 15.2932C54.7587 14.3172 53.3372 13.552 51.8215 13.0267C52.4657 12.0045 52.8685 10.8488 52.9991 9.64761C53.0111 9.40862 52.9591 9.17077 52.8486 8.95853C52.7381 8.74629 52.573 8.56732 52.3704 8.44003L40.7185 1.13274C40.3355 0.61006 39.7726 0.247642 39.1382 0.115339C36.4121 -0.511109 33.8478 1.51323 32.5146 3.79422C31.2833 6.04486 30.6774 8.58426 30.7599 11.1484C30.7699 11.611 30.794 12.1026 30.8254 12.6125C30.5571 12.6512 30.2927 12.7131 30.0351 12.7974L25.8745 14.1801ZM17.1094 11.0642C19.055 11.9196 20.753 13.2524 22.0461 14.939C22.273 15.2289 22.5026 15.5336 22.7393 15.8583C19.2825 15.2322 14.1321 12.8279 12.699 11.2946L12.6858 11.2798C13.5546 10.3267 15.5533 10.4427 17.1094 11.0642ZM8.32068 24.0854L11.8609 14.0725C14.3539 15.8513 19.4116 18.2052 23.2093 18.6142C23.3514 18.9455 23.5144 19.2673 23.6973 19.5779C21.1671 19.6913 19.168 21.1501 17.3778 22.4641C16.7195 22.9469 16.0986 23.4031 15.4731 23.7814C14.9155 24.0614 14.3136 24.2425 13.6941 24.3165C12.9303 24.4308 12.1843 24.6424 11.4743 24.9462C11.3213 25.0177 11.1819 25.1101 11.0379 25.1954C10.0643 25.0201 9.13855 24.6419 8.32068 24.0854ZM20.2907 24.3763C18.3095 25.8271 16.7638 27.7931 15.8217 30.0608C15.2899 31.2958 14.8783 32.5792 14.5925 33.8931C13.8595 33.5594 13.1091 33.2655 12.3445 33.0126C11.439 32.7307 10.5145 32.5135 9.57819 32.3628C9.76825 31.7091 9.96821 31.0409 10.0136 30.9084C10.7081 29.1178 11.6565 27.8337 12.6154 27.3853C13.1224 27.1812 13.6522 27.0391 14.1932 26.962C15.1314 26.8371 16.0383 26.5396 16.8681 26.0844C17.5961 25.6443 18.2959 25.1306 18.9721 24.634C20.7491 23.3298 22.4269 22.0946 24.425 22.279C22.9654 22.8043 21.5767 23.5088 20.2907 24.3763ZM53.1557 16.5771C53.2912 16.6629 53.8877 17.0761 54.4625 17.4817C53.8366 18.1451 53.26 18.8534 52.7374 19.6009C52.2963 20.2511 51.8984 20.9295 51.5463 21.6319L51.5456 21.6315V21.6312C50.465 20.7528 49.3053 19.9763 48.0816 19.3117C46.0168 18.1631 43.7012 17.5403 41.3389 17.4981C41.2132 17.4981 41.0876 17.5001 40.962 17.504C39.3681 17.5873 37.7905 17.8675 36.2654 18.3382C37.709 17.0182 39.8255 16.9909 42.0617 16.962C42.9107 16.9509 43.7894 16.9397 44.6424 16.8542C45.578 16.7214 46.4811 16.4169 47.3061 15.9559C47.7842 15.6942 48.2924 15.4914 48.8194 15.3521C49.8797 15.1309 51.4661 15.5839 53.1557 16.5771ZM40.8981 4.4247L50.1572 10.2311C49.8737 11.1294 49.3995 11.9559 48.7671 12.6541C48.601 12.6722 48.434 12.6821 48.2697 12.7162C47.5205 12.8973 46.7977 13.1739 46.119 13.5392C45.5786 13.8511 44.9879 14.0662 44.3735 14.1749C43.6369 14.2488 42.8549 14.259 42.0262 14.2695C39.766 14.299 37.247 14.3351 35.1715 15.7756C35.1715 15.7756 34.9709 14.8724 34.9053 14.7025C37.6112 12.1212 40.0616 7.3123 40.8982 4.42469L40.8981 4.4247ZM34.8402 5.15234C35.4512 4.10781 36.7686 2.70368 38.1412 2.70368C38.2654 2.70351 38.3894 2.71529 38.5114 2.73885C38.5114 2.7474 38.5108 2.7566 38.5101 2.76678C38.3799 4.63928 35.8826 9.79193 33.5051 12.3507C33.4794 11.9086 33.4623 11.4915 33.4537 11.0912C33.3864 9.02417 33.8646 6.97587 34.8402 5.15234L34.8402 5.15234ZM30.8849 15.3525C31.2848 15.2199 32.3089 15.1432 32.4206 15.7327L33.2197 19.9092C33.2821 20.2333 32.9105 20.726 32.2594 20.9426L29.6635 21.8054C29.4189 21.9159 29.1469 21.9507 28.8824 21.9055C28.6179 21.8602 28.373 21.7369 28.1791 21.5513C28.1791 21.5513 25.8341 17.9228 25.8161 17.895C25.493 17.395 26.3834 16.8487 26.7249 16.7352L30.8849 15.3525Z" fill="white"/>
<path d="M38.9015 86.0841L66.6667 80.609C67.578 80.4316 68.3998 79.9441 68.9925 79.2295C69.5851 78.5148 69.912 77.617 69.9177 76.6885V52.5278C69.916 52.4113 69.8992 52.2954 69.8675 52.1833C69.9216 51.9954 69.9336 51.798 69.9026 51.605C69.8716 51.412 69.7984 51.2283 69.6883 51.0668C69.5781 50.9053 69.4337 50.7702 69.2653 50.6709C69.0969 50.5717 68.9087 50.5108 68.7141 50.4926L37.7334 47.174C37.4041 47.1306 37.0706 47.1291 36.7409 47.1694L5.12363 50.4693C4.92849 50.4861 4.73951 50.546 4.57034 50.6447C4.40117 50.7435 4.25604 50.8785 4.14541 51.0401C4.03478 51.2018 3.96142 51.3859 3.93063 51.5794C3.89984 51.7728 3.91239 51.9707 3.96736 52.1586C3.93542 52.2712 3.9184 52.3875 3.91674 52.5044V76.7276C3.92043 77.668 4.2546 78.5771 4.86079 79.296C5.46699 80.0149 6.30662 80.4978 7.23285 80.6603L37.3875 86.0962C37.8886 86.1848 38.4018 86.1807 38.9015 86.0841ZM57.1216 79.7466L50.3868 81.0747V65.2854L51.007 65.5221C51.2207 65.6037 51.4516 65.6296 51.678 65.5973C51.9045 65.5651 52.119 65.4757 52.3014 65.3377L53.8752 64.1459L55.7233 64.8495C55.9368 64.9305 56.1673 64.9561 56.3933 64.9238C56.6193 64.8915 56.8335 64.8024 57.0157 64.6648L57.1216 64.5847V79.7466ZM67.2238 76.6885C67.2195 76.9934 67.1098 77.2873 66.9132 77.5204C66.7167 77.7535 66.4455 77.9113 66.1458 77.967L59.8155 79.2154V61.9283C59.8179 61.7223 59.7725 61.5186 59.6828 61.3332C59.5931 61.1478 59.4616 60.9857 59.2986 60.8598C59.1356 60.7338 58.9456 60.6474 58.7436 60.6073C58.5415 60.5672 58.333 60.5746 58.1343 60.6289C57.9268 60.6645 57.7308 60.7488 57.5622 60.8748L55.9851 62.068L54.1363 61.3639C53.9228 61.2827 53.6921 61.257 53.4659 61.2894C53.2397 61.3218 53.0255 61.4111 52.8433 61.549L51.2701 62.7404L49.8339 62.1921C49.5957 62.0082 49.304 61.9071 49.0032 61.9039C48.7023 61.9007 48.4086 61.9957 48.1666 62.1745C47.9245 62.3532 47.7473 62.606 47.6619 62.8945C47.5764 63.1829 47.5873 63.4914 47.6929 63.7732V81.606L39.4816 83.2252V57.6669L67.2238 54.0604V76.6885ZM37.0481 49.8441C37.1712 49.8298 37.2956 49.8311 37.4184 49.8481L60.0719 52.2749L38.1675 55.1224L14.2059 52.2285L37.0481 49.8441ZM23.4476 80.8473L16.7129 79.6331V65.9334L16.8141 66.0102C16.9965 66.1479 17.2109 66.2372 17.4372 66.2695C17.6634 66.3018 17.8942 66.2761 18.1078 66.1949L19.9527 65.4912L21.5292 66.6836C21.7113 66.8213 21.9254 66.9105 22.1515 66.9428C22.3775 66.9751 22.6081 66.9495 22.8215 66.8683L23.4476 66.6299L23.4476 80.8473ZM36.7877 83.2521L26.1416 81.3329V65.1189C26.2363 64.8384 26.2395 64.5352 26.1508 64.2528C26.0621 63.9705 25.886 63.7236 25.648 63.5477C25.4099 63.3719 25.1221 63.2762 24.8262 63.2744C24.5302 63.2726 24.2413 63.3648 24.0012 63.5378L22.5598 64.0867L20.9826 62.8936C20.8003 62.756 20.586 62.6668 20.3599 62.6346C20.1337 62.6023 19.9031 62.628 19.6896 62.7092L17.8454 63.4129L16.2729 62.2215C16.0697 62.0636 15.8269 61.9649 15.5713 61.9361C15.3156 61.9074 15.057 61.9499 14.8239 62.0588C14.5908 62.1677 14.3923 62.3388 14.2503 62.5533C14.1082 62.7679 14.0282 63.0174 14.0189 63.2745V79.1475L7.71165 78.0104C7.40681 77.9597 7.1295 77.8035 6.92823 77.5689C6.72696 77.3344 6.61456 77.0366 6.61068 76.7276V54.023L36.7877 57.6677L36.7877 83.2521Z" fill="white"/>
</svg>
