<svg width="96" height="96" viewBox="0 0 96 96" fill="none" xmlns="http://www.w3.org/2000/svg">
<path d="M45.641 80.2191H19.0829C18.3313 80.2191 17.7004 79.6543 17.6165 78.907L16.6575 70.3066L14.6181 79.0781C14.4632 79.7469 13.8676 80.2191 13.1815 80.2191H4.32932C3.87607 80.2191 3.44936 80.0117 3.16885 79.6554C2.88943 79.2996 2.78871 78.8344 2.89485 78.3947L8.3387 56.0199C11.2418 46.337 20.5889 39.9228 30.5966 40.6896C54.2722 42.5118 71.4382 42.8389 78.9246 41.6112C80.9098 41.2907 82.9129 42.1587 84.0333 43.8374C84.8634 45.0834 85.1125 46.6257 84.7188 48.0699C84.33 49.4957 83.3456 50.6822 82.0205 51.3238C76.1748 54.1495 64.2891 58.6413 49.2594 57.7311L47.1079 78.8934C47.0321 79.6462 46.3975 80.2191 45.641 80.2191ZM20.4026 77.2673H44.3078L46.4689 56.0063C46.5507 55.207 47.2438 54.5984 48.0599 54.6867C63.0767 55.9311 74.9754 51.4516 80.7355 48.6666C81.3019 48.3926 81.7048 47.9047 81.8726 47.2923C82.0421 46.6706 81.9338 46.0089 81.5786 45.4733C81.1021 44.758 80.2579 44.3768 79.4044 44.5235C69.5082 46.1394 47.2796 44.9313 30.3686 43.6305C21.7569 42.9612 13.6715 48.5015 11.1865 56.791L6.20621 77.2673H12.0107L15.7298 61.252C15.8917 60.5523 16.554 60.072 17.2526 60.1143C17.9706 60.1554 18.5528 60.7083 18.6334 61.4215L20.4026 77.2673Z" fill="white"/>
<path d="M32.0827 71.5224C31.6425 71.5224 31.225 71.3264 30.9455 70.9863L23.9048 62.4639C22.5596 60.8394 22.2288 58.6056 23.0367 56.6345C23.8143 54.7349 25.4762 53.4802 27.4771 53.2755C29.1499 53.1179 30.8199 53.6264 32.0822 54.6704C33.3439 53.6264 35.0459 53.1179 36.6829 53.2755C38.6887 53.4813 40.3495 54.7349 41.1282 56.6345C41.9361 58.6056 41.6047 60.8383 40.2601 62.4639L33.2194 70.9863C32.941 71.3264 32.5224 71.5224 32.0827 71.5224ZM28.115 56.1948C28.0002 56.1948 27.8865 56.2008 27.7728 56.2116C26.4797 56.3443 25.9392 57.3347 25.7665 57.7538C25.4578 58.5076 25.4031 59.647 26.178 60.5854L32.0827 67.7302L37.9869 60.5854C38.7634 59.647 38.7071 58.5076 38.3995 57.7538C38.2262 57.3347 37.6863 56.3443 36.3883 56.2116C35.249 56.0914 33.9888 56.6486 33.312 57.6677C32.765 58.4892 31.4015 58.4892 30.8535 57.6677C30.241 56.7461 29.217 56.1948 28.115 56.1948Z" fill="white"/>
<path d="M34.3617 38.6269C27.5603 38.6269 22.0271 33.0932 22.0271 26.2912C22.0271 19.4893 27.5603 13.9561 34.3617 13.9561C41.1637 13.9561 46.6974 19.4893 46.6974 26.2912C46.6974 33.0932 41.1637 38.6269 34.3617 38.6269ZM34.3617 16.9062C29.1876 16.9062 24.9778 21.117 24.9778 26.2912C24.9778 31.4659 29.1876 35.6762 34.3617 35.6762C39.537 35.6762 43.7473 31.4659 43.7473 26.2912C43.7473 21.117 39.537 16.9062 34.3617 16.9062Z" fill="white"/>
<path d="M64.2274 40.0024C58.1641 40.0024 53.2314 35.0697 53.2314 29.0069C53.2314 22.9425 58.1641 18.0093 64.2274 18.0093C70.2913 18.0093 75.224 22.9425 75.224 29.0069C75.224 35.0697 70.2913 40.0024 64.2274 40.0024ZM64.2274 20.9595C59.7914 20.9595 56.1816 24.5687 56.1816 29.0069C56.1816 33.4425 59.7914 37.0522 64.2274 37.0522C68.6646 37.0522 72.2738 33.4425 72.2738 29.0069C72.2738 24.5687 68.6646 20.9595 64.2274 20.9595Z" fill="white"/>
<path d="M91.3778 80.219H80.5183C79.9432 80.219 79.4196 79.8844 79.1791 79.3634L76.5631 73.7133V78.7434C76.5631 79.5589 75.903 80.219 75.0875 80.219H51.5424C51.1238 80.219 50.7247 80.042 50.4447 79.7311C50.1642 79.4192 50.0305 79.0039 50.0743 78.588L51.9003 61.4312C51.9805 60.6806 52.6124 60.1115 53.3668 60.1115C53.5444 60.1115 71.234 60.02 83.4051 53.0658C83.7972 52.8406 84.2699 52.8065 84.6863 52.9781C85.1055 53.1449 85.4239 53.4942 85.5522 53.9274L92.7928 78.3248C92.9249 78.7699 92.8388 79.2524 92.5616 79.6255C92.2811 79.9986 91.8425 80.219 91.3778 80.219ZM81.46 77.2672H89.4002L83.2389 56.5072C72.4584 62.0084 58.9595 62.8933 54.6967 63.0341L53.1832 77.2672H73.6124V67.0158C73.6124 66.3238 74.0938 65.7248 74.7712 65.5759C75.4416 65.4297 76.1353 65.7687 76.4261 66.3974L81.46 77.2672Z" fill="white"/>
</svg>
