<svg width="82" height="93" viewBox="0 0 82 93" fill="none" xmlns="http://www.w3.org/2000/svg">
<path d="M14.2653 59.5532C11.8012 59.5532 9.7959 61.5585 9.7959 64.0226C9.7959 66.4867 11.8012 68.492 14.2653 68.492C16.7294 68.492 18.7347 66.4867 18.7347 64.0226C18.7347 61.5585 16.7294 59.5532 14.2653 59.5532ZM14.2653 65.5124C13.4429 65.5124 12.7755 64.845 12.7755 64.0226C12.7755 63.2002 13.4429 62.5328 14.2653 62.5328C15.0876 62.5328 15.7551 63.2002 15.7551 64.0226C15.7551 64.845 15.0876 65.5124 14.2653 65.5124Z" fill="white"/>
<path d="M12.7755 52.1042H9.7959V55.0838H12.7755V52.1042Z" fill="white"/>
<path d="M12.7755 43.1653H9.7959V46.1449H12.7755V43.1653Z" fill="white"/>
<path d="M67.8976 59.5532C65.4335 59.5532 63.4282 61.5585 63.4282 64.0226C63.4282 66.4867 65.4335 68.492 67.8976 68.492C70.3617 68.492 72.367 66.4867 72.367 64.0226C72.367 61.5585 70.3617 59.5532 67.8976 59.5532ZM67.8976 65.5124C67.0752 65.5124 66.4078 64.845 66.4078 64.0226C66.4078 63.2002 67.0752 62.5328 67.8976 62.5328C68.72 62.5328 69.3874 63.2002 69.3874 64.0226C69.3874 64.845 68.72 65.5124 67.8976 65.5124Z" fill="white"/>
<path d="M72.3673 52.1042H69.3877V55.0838H72.3673V52.1042Z" fill="white"/>
<path d="M72.3673 43.1653H69.3877V46.1449H72.3673V43.1653Z" fill="white"/>
<path d="M69.1669 29.9586L41.0813 0.792969L12.9958 29.9586C5.16839 38.0884 0.856934 48.7807 0.856934 60.0673C0.856934 71.6624 5.3725 82.5647 13.5708 90.763L15.1381 92.3288H21.714H60.4486H67.0246L68.5918 90.7615C76.7902 82.5632 81.3057 71.6624 81.3057 60.0673C81.3057 48.7807 76.9943 38.0884 69.1669 29.9586ZM35.7389 87.8594L38.5382 85.0601C38.8928 84.7055 39.5915 84.993 39.5915 85.4966V89.3492H32.1426V87.8594H35.7389ZM42.5711 85.4966C42.5711 84.993 43.2698 84.7055 43.6244 85.0601L46.4237 87.8594H50.0201V89.3492H42.5711V85.4966ZM52.9997 89.3492V87.8594H57.469V84.8798H47.6573L45.731 82.9535C45.062 82.2846 44.1354 81.9002 43.1879 81.9002C42.3983 81.9002 41.6743 82.1624 41.0813 82.596C40.4884 82.1624 39.7629 81.9002 38.9748 81.9002C38.0273 81.9002 37.1006 82.2846 36.4317 82.9535L34.5054 84.8798H24.6936V87.8594H29.163V89.3492H21.714C19.2499 89.3492 17.2446 87.3439 17.2446 84.8798C17.2446 82.4157 19.2499 80.4104 21.714 80.4104H60.4486C62.9127 80.4104 64.918 82.4157 64.918 84.8798C64.918 87.3439 62.9127 89.3492 60.4486 89.3492H52.9997ZM52.9997 56.2877C51.7542 55.516 50.327 55.084 48.8253 55.084H47.0405V54.6907C49.7385 52.8031 51.5099 49.679 51.5099 46.1452V38.6963H30.6528V46.1452C30.6528 49.679 32.4241 52.8031 35.1222 54.6907V55.084H33.3374C31.8372 55.084 30.4085 55.516 29.163 56.2877V40.1861C29.163 33.6146 34.5099 28.2677 41.0813 28.2677C47.6528 28.2677 52.9997 33.6146 52.9997 40.1861V56.2877ZM41.0813 58.0636C39.4977 58.0636 38.4712 56.7332 38.1017 56.1626V56.1343C39.0463 56.4173 40.0459 56.5738 41.0813 56.5738C42.1167 56.5738 43.1164 56.4173 44.0609 56.1343V56.1626C43.6914 56.7332 42.665 58.0636 41.0813 58.0636ZM41.0813 53.5942C36.974 53.5942 33.6324 50.2526 33.6324 46.1452V41.6758H48.5303V46.1452C48.5303 50.2526 45.1887 53.5942 41.0813 53.5942ZM29.8081 59.525C30.7496 58.5835 32.004 58.0636 33.3374 58.0636H35.7926C36.4347 58.9649 37.6876 60.3415 39.5915 60.845V68.4921H42.5711V60.845C44.4751 60.34 45.728 58.9649 46.3701 58.0636H48.8253C50.1586 58.0636 51.4115 58.5835 52.3546 59.525C52.8984 60.0688 53.3155 60.7437 53.5598 61.4752L56.2295 69.4858L62.4375 73.2103C63.0483 73.5768 63.4282 74.2472 63.4282 74.9608V75.3898C63.4282 76.5161 62.5135 77.4309 61.3872 77.4309C61.0326 77.4309 60.681 77.3385 60.3727 77.1612L51.5099 72.0974V64.0227H48.5303V77.4309H33.6324V64.0227H30.6528V72.0974L21.7885 77.1627C21.4816 77.3385 21.13 77.4309 20.7755 77.4309C19.6492 77.4309 18.7344 76.5161 18.7344 75.3898V74.9608C18.7344 74.2472 19.1143 73.5768 19.7252 73.2103L25.9331 69.4858L28.6043 61.4737C28.8472 60.7452 29.2628 60.0703 29.8081 59.525ZM51.5099 75.5284L54.8381 77.4309H51.5099V75.5284ZM30.6528 77.4309H27.3231L30.6528 75.5284V77.4309ZM67.2972 87.8028C67.6816 86.9044 67.8976 85.9167 67.8976 84.8798C67.8976 82.4544 66.7147 80.3166 64.915 78.9564C65.8357 78.0446 66.4078 76.7843 66.4078 75.3898V74.9608C66.4078 73.2073 65.4737 71.5596 63.9705 70.6553L58.7085 67.4984L56.386 60.5336C56.2742 60.1969 56.1327 59.8722 55.9763 59.5534H55.9793V40.1861C55.9793 31.9713 49.296 25.2881 41.0813 25.2881C32.8666 25.2881 26.1834 31.9713 26.1834 40.1861V59.5534H26.1849C26.0285 59.8722 25.8884 60.1969 25.7767 60.5321L23.4526 67.4984L18.1907 70.6553C16.689 71.5596 15.7549 73.2073 15.7549 74.9608V75.3898C15.7549 76.7843 16.3269 78.0446 17.2476 78.9564C15.448 80.3166 14.2651 82.4544 14.2651 84.8798C14.2651 85.9167 14.4811 86.9044 14.8655 87.8028C7.75169 80.2704 3.83652 70.472 3.83652 60.0673C3.83652 49.5554 7.85151 39.5976 15.144 32.0265L41.0813 5.08953L67.0186 32.0265C74.3111 39.5961 78.3261 49.5554 78.3261 60.0673C78.3261 70.472 74.411 80.2704 67.2972 87.8028Z" fill="white"/>
<path d="M42.5711 71.4717H39.5916V74.4513H42.5711V71.4717Z" fill="white"/>
</svg>
