<svg width="44" height="38" viewBox="0 0 44 38" fill="none" xmlns="http://www.w3.org/2000/svg">
<path d="M1.69231 25.7692C1.24348 25.7692 0.813035 25.5909 0.495665 25.2736C0.178296 24.9562 0 24.5258 0 24.0769V13.9231C0 13.4743 0.178296 13.0438 0.495665 12.7264C0.813035 12.4091 1.24348 12.2308 1.69231 12.2308C2.14114 12.2308 2.57158 12.4091 2.88895 12.7264C3.20632 13.0438 3.38462 13.4743 3.38462 13.9231V24.0769C3.38462 24.5258 3.20632 24.9562 2.88895 25.2736C2.57158 25.5909 2.14114 25.7692 1.69231 25.7692Z" fill="#FFC700"/>
<path d="M8.46159 30.8462C8.01277 30.8462 7.58232 30.6679 7.26495 30.3505C6.94758 30.0331 6.76929 29.6027 6.76929 29.1539V8.84618C6.76929 8.39735 6.94758 7.9669 7.26495 7.64954C7.58232 7.33217 8.01277 7.15387 8.46159 7.15387C8.91042 7.15387 9.34087 7.33217 9.65824 7.64954C9.97561 7.9669 10.1539 8.39735 10.1539 8.84618V29.1539C10.1539 29.6027 9.97561 30.0331 9.65824 30.3505C9.34087 30.6679 8.91042 30.8462 8.46159 30.8462Z" fill="#FFC700"/>
<path d="M15.2309 25.7692C14.7821 25.7692 14.3516 25.5909 14.0342 25.2736C13.7169 24.9562 13.5386 24.5258 13.5386 24.0769V13.9231C13.5386 13.4743 13.7169 13.0438 14.0342 12.7264C14.3516 12.4091 14.7821 12.2308 15.2309 12.2308C15.6797 12.2308 16.1102 12.4091 16.4275 12.7264C16.7449 13.0438 16.9232 13.4743 16.9232 13.9231V24.0769C16.9232 24.5258 16.7449 24.9562 16.4275 25.2736C16.1102 25.5909 15.6797 25.7692 15.2309 25.7692Z" fill="#FFC700"/>
<path d="M21.9999 32.5385C21.5511 32.5385 21.1207 32.3602 20.8033 32.0428C20.4859 31.7254 20.3076 31.295 20.3076 30.8462V7.15386C20.3076 6.70503 20.4859 6.27458 20.8033 5.95721C21.1207 5.63984 21.5511 5.46155 21.9999 5.46155C22.4488 5.46155 22.8792 5.63984 23.1966 5.95721C23.5139 6.27458 23.6922 6.70503 23.6922 7.15386V30.8462C23.6922 31.295 23.5139 31.7254 23.1966 32.0428C22.8792 32.3602 22.4488 32.5385 21.9999 32.5385Z" fill="#FFC700"/>
<path d="M28.7692 37.6154C28.3204 37.6154 27.8899 37.4371 27.5726 37.1197C27.2552 36.8024 27.0769 36.3719 27.0769 35.9231V2.07695C27.0769 1.62812 27.2552 1.19768 27.5726 0.880309C27.8899 0.56294 28.3204 0.384644 28.7692 0.384644C29.218 0.384644 29.6485 0.56294 29.9659 0.880309C30.2832 1.19768 30.4615 1.62812 30.4615 2.07695V35.9231C30.4615 36.3719 30.2832 36.8024 29.9659 37.1197C29.6485 37.4371 29.218 37.6154 28.7692 37.6154Z" fill="#FFC700"/>
<path d="M35.5385 30.8462C35.0897 30.8462 34.6592 30.6679 34.3419 30.3505C34.0245 30.0331 33.8462 29.6027 33.8462 29.1539V8.84618C33.8462 8.39735 34.0245 7.9669 34.3419 7.64954C34.6592 7.33217 35.0897 7.15387 35.5385 7.15387C35.9873 7.15387 36.4178 7.33217 36.7351 7.64954C37.0525 7.9669 37.2308 8.39735 37.2308 8.84618V29.1539C37.2308 29.6027 37.0525 30.0331 36.7351 30.3505C36.4178 30.6679 35.9873 30.8462 35.5385 30.8462Z" fill="#FFC700"/>
<path d="M42.3078 24.0769C41.859 24.0769 41.4285 23.8986 41.1111 23.5813C40.7938 23.2639 40.6155 22.8335 40.6155 22.3846V15.6154C40.6155 15.1666 40.7938 14.7361 41.1111 14.4188C41.4285 14.1014 41.859 13.9231 42.3078 13.9231C42.7566 13.9231 43.1871 14.1014 43.5044 14.4188C43.8218 14.7361 44.0001 15.1666 44.0001 15.6154V22.3846C44.0001 22.8335 43.8218 23.2639 43.5044 23.5813C43.1871 23.8986 42.7566 24.0769 42.3078 24.0769Z" fill="#FFC700"/>
</svg>
