<svg width="68" height="68" viewBox="0 0 68 68" fill="none" xmlns="http://www.w3.org/2000/svg">
<path d="M21 48C31.5 50.5 38 50.5 47 48" stroke="white" stroke-width="3" stroke-linecap="round" stroke-linejoin="round"/>
<path d="M21.8627 29.3823C24.0971 29.3823 25.9105 32.0376 25.9105 34.2396C25.9105 34.669 26.081 35.0809 26.3847 35.3845C26.6883 35.6881 27.1002 35.8587 27.5296 35.8587C27.959 35.8587 28.3708 35.6881 28.6745 35.3845C28.9781 35.0809 29.1487 34.669 29.1487 34.2396C29.1487 30.4185 26.04 26.144 21.8627 26.144C17.6854 26.144 14.5767 30.4185 14.5767 34.2396C14.5767 34.669 14.7472 35.0809 15.0509 35.3845C15.3545 35.6881 15.7664 35.8587 16.1958 35.8587C16.6252 35.8587 17.037 35.6881 17.3407 35.3845C17.6443 35.0809 17.8149 34.669 17.8149 34.2396C17.8149 32.0376 19.6283 29.3823 21.8627 29.3823Z" fill="white"/>
<path d="M38.8638 34.2396C38.8638 34.669 39.0344 35.0809 39.338 35.3845C39.6416 35.6881 40.0535 35.8587 40.4829 35.8587C40.9123 35.8587 41.3241 35.6881 41.6278 35.3845C41.9314 35.0809 42.102 34.669 42.102 34.2396C42.102 32.0376 43.9154 29.3823 46.1498 29.3823C48.3842 29.3823 50.1976 32.0376 50.1976 34.2396C50.1976 34.669 50.3682 35.0809 50.6718 35.3845C50.9754 35.6881 51.3873 35.8587 51.8167 35.8587C52.2461 35.8587 52.6579 35.6881 52.9616 35.3845C53.2652 35.0809 53.4358 34.669 53.4358 34.2396C53.4358 30.4185 50.3271 26.144 46.1498 26.144C41.9725 26.144 38.8638 30.4185 38.8638 34.2396Z" fill="white"/>
<path d="M45.6607 49.607C45.608 49.1808 45.3882 48.793 45.0496 48.5289C44.7111 48.2648 44.2814 48.146 43.8553 48.1986C43.4291 48.2513 43.0413 48.4711 42.7772 48.8097C42.513 49.1482 42.3942 49.5779 42.4469 50.0041C42.7169 52.1894 41.2427 55.0471 39.0252 55.3211C36.8077 55.595 34.6824 53.1821 34.4124 50.9967C34.3597 50.5705 34.14 50.1827 33.8014 49.9186C33.4628 49.6545 33.0332 49.5357 32.607 49.5883C32.1808 49.641 31.793 49.8608 31.5289 50.1994C31.2648 50.5379 31.146 50.9676 31.1986 51.3938C31.6671 55.186 35.2765 59.0471 39.4223 58.5349C43.5681 58.0227 46.1292 53.3993 45.6607 49.607Z" fill="white"/>
<circle cx="34" cy="34" r="32.5" stroke="white" stroke-width="3"/>
</svg>
