<svg width="74" height="68" viewBox="0 0 74 68" fill="none" xmlns="http://www.w3.org/2000/svg">
<path d="M72.6185 31.4879C68.2182 31.334 63.9127 31.9808 59.8673 33.363C59.7868 29.0424 58.9188 24.8069 57.2781 20.7463C57.01 20.0833 56.2562 19.7629 55.5919 20.0306C53.0292 21.066 50.6292 22.3737 48.4103 23.9373C45.7467 18.6837 42.2737 13.8963 38.0668 9.69103C37.5609 9.18532 36.7411 9.18532 36.2355 9.69117C32.0268 13.8999 28.5541 18.6866 25.8925 23.9353C23.6749 22.3727 21.2758 21.0656 18.7139 20.0306C18.0503 19.7627 17.2959 20.0831 17.0278 20.7463C15.3844 24.8135 14.5159 29.056 14.4378 33.3839C10.4476 32.0127 6.14768 31.3324 1.68653 31.4879C0.971575 31.513 0.412372 32.1126 0.437327 32.8275C1.10668 51.9937 16.9105 67.1292 35.9413 67.1292C36.3431 67.1292 36.7482 67.1218 37.1527 67.1085C37.5581 67.1221 37.9614 67.1292 38.3642 67.1292C57.3933 67.1292 73.1988 51.9927 73.868 32.8275C73.8927 32.1126 73.3335 31.5129 72.6185 31.4879ZM18.9584 22.9511C22.608 24.594 25.8785 26.8501 28.6955 29.6702C31.7197 32.6926 34.0915 36.225 35.7553 40.1734C34.6454 43.0406 33.9172 46.0041 33.5777 49.0273C29.7597 42.5442 23.9488 37.3924 17.0241 34.3869C16.9816 30.4821 17.6308 26.6448 18.9584 22.9511ZM3.09838 34.0564C11.4101 34.092 19.286 37.2077 25.3997 42.909C31.5137 48.6105 35.1714 56.2487 35.7863 64.5385C18.6519 64.4579 4.37383 51.1435 3.09838 34.0564ZM30.5273 27.8387C29.7151 27.0256 28.8672 26.2571 27.9867 25.532C30.3591 20.748 33.4357 16.3597 37.1515 12.4609C40.8653 16.357 43.9417 20.7456 46.3159 25.534C45.4363 26.2584 44.5891 27.0259 43.7775 27.8381C41.0764 30.5377 38.8567 33.6169 37.1524 37.0168C35.4495 33.6186 33.2299 30.5396 30.5273 27.8387ZM37.1474 57.4023C36.8106 56.2027 36.413 55.0295 35.9575 53.886C35.9491 53.6093 35.9448 53.3169 35.9448 52.9962C35.9448 48.7513 36.7551 44.595 38.353 40.6421C40.0267 36.5005 42.4679 32.809 45.6093 29.6696C48.4275 26.8496 51.6985 24.5937 55.3478 22.9511C56.6723 26.6368 57.3211 30.4653 57.2818 34.3612C53.5929 35.9571 50.1658 38.1917 47.1392 41.0143C42.2941 45.5322 38.8813 51.1789 37.1474 57.4023ZM38.5189 64.5384C39.1339 56.2487 42.7912 48.6105 48.9054 42.9089C55.0196 37.2071 62.8942 34.0914 71.2068 34.0563C69.9311 51.1445 55.6547 64.4595 38.5189 64.5384Z" fill="white"/>
<path d="M2.45711 27.7046C3.17245 27.7046 3.75236 27.1247 3.75236 26.4094C3.75236 25.694 3.17245 25.1141 2.45711 25.1141C1.74177 25.1141 1.16187 25.694 1.16187 26.4094C1.16187 27.1247 1.74177 27.7046 2.45711 27.7046Z" fill="white"/>
<path d="M18.2291 13.3233C18.9444 13.3233 19.5243 12.7434 19.5243 12.028C19.5243 11.3127 18.9444 10.7328 18.2291 10.7328C17.5137 10.7328 16.9338 11.3127 16.9338 12.028C16.9338 12.7434 17.5137 13.3233 18.2291 13.3233Z" fill="white"/>
<path d="M37.1512 2.59025C37.8665 2.59025 38.4464 2.01035 38.4464 1.295C38.4464 0.579657 37.8665 -0.000244141 37.1512 -0.000244141C36.4359 -0.000244141 35.856 0.579657 35.856 1.295C35.856 2.01035 36.4359 2.59025 37.1512 2.59025Z" fill="white"/>
<path d="M56.0767 13.3233C56.7921 13.3233 57.372 12.7434 57.372 12.028C57.372 11.3127 56.7921 10.7328 56.0767 10.7328C55.3614 10.7328 54.7815 11.3127 54.7815 12.028C54.7815 12.7434 55.3614 13.3233 56.0767 13.3233Z" fill="white"/>
<path d="M71.8458 27.7046C72.5611 27.7046 73.141 27.1247 73.141 26.4094C73.141 25.694 72.5611 25.1141 71.8458 25.1141C71.1304 25.1141 70.5505 25.694 70.5505 26.4094C70.5505 27.1247 71.1304 27.7046 71.8458 27.7046Z" fill="white"/>
</svg>
